M48
; DRILL file {KiCad 8.0.7} date 2026-09-16T23:56:10+0530
; FORMAT={-:-/ absolute / inch / decimal}
; #@! TF.CreationDate,2026-09-16T23:56:10+05:30
; #@! TF.GenerationSoftware,Kicad,Pcbnew,8.0.7
; #@! TF.FileFunction,Plated,1,2,PTH
FMAT,2
INCH
; #@! TA.AperFunction,Plated,PTH,ViaDrill
T1C0.0118
; #@! TA.AperFunction,Plated,PTH,ComponentDrill
T2C0.0236
; #@! TA.AperFunction,Plated,PTH,ComponentDrill
T3C0.0295
; #@! TA.AperFunction,Plated,PTH,ComponentDrill
T4C0.0394
%
G90
G05
T1
X5.3631Y-4.2149
X5.3992Y-4.2858
X5.4631Y-4.0797
X5.4938Y-4.1454
X5.5193Y-4.6478
X5.537Y-4.6191
X5.5547Y-4.5169
X5.586Y-4.5134
X5.6004Y-4.0059
X5.6199Y-4.0254
X5.6396Y-3.8991
X5.6594Y-4.065
X5.6594Y-4.1298
X5.6693Y-4.3307
X5.7011Y-3.3857
X5.7874Y-4.5276
X5.7874Y-4.5799
X5.7887Y-4.3916
X5.799Y-3.6417
X5.8071Y-4.2224
X5.8169Y-4.4162
X5.8178Y-3.9927
X5.8268Y-4.6063
X5.8268Y-4.6949
X5.8414Y-3.8399
X5.8789Y-4.4882
X5.9098Y-4.1298
X5.9258Y-4.0796
X5.9561Y-3.6998
X5.9687Y-4.1063
X5.9784Y-3.722
X5.9967Y-4.6063
X6.0577Y-3.6422
X6.1193Y-4.503
X6.1811Y-4.4094
X6.1909Y-3.7697
X6.208Y-4.2691
X6.2495Y-4.3167
X6.3091Y-4.0059
X6.3091Y-4.0354
X6.4173Y-3.9862
X6.5059Y-3.7008
X6.5253Y-4.2817
X6.8701Y-4.4291
X6.9488Y-4.685
X7.0472Y-3.9961
X7.0472Y-4.6457
X7.2343Y-3.9862
T3
X5.2461Y-4.4488
X5.2461Y-4.5276
X5.2461Y-4.6063
X5.2461Y-4.685
X6.0728Y-4.4488
X6.0728Y-4.5276
X6.0728Y-4.6063
X6.0728Y-4.685
T4
X5.2675Y-4.8612
X5.2675Y-4.9612
X5.2691Y-3.2175
X5.2691Y-3.3175
X5.3675Y-4.8612
X5.3675Y-4.9612
X5.3691Y-3.2175
X5.3691Y-3.3175
X5.4675Y-4.8612
X5.4675Y-4.9612
X5.4691Y-3.2175
X5.4691Y-3.3175
X5.5675Y-4.8612
X5.5675Y-4.9612
X5.5691Y-3.2175
X5.5691Y-3.3175
X5.6675Y-4.8612
X5.6675Y-4.9612
X5.6691Y-3.2175
X5.6691Y-3.3175
X5.7675Y-4.8612
X5.7675Y-4.9612
X5.7691Y-3.2175
X5.7691Y-3.3175
X5.8675Y-4.8612
X5.8675Y-4.9612
X5.8691Y-3.2175
X5.8691Y-3.3175
X5.9675Y-4.8612
X5.9675Y-4.9612
X5.9691Y-3.2175
X5.9691Y-3.3175
X6.0675Y-4.8612
X6.0675Y-4.9612
X6.0691Y-3.2175
X6.0691Y-3.3175
X6.1675Y-4.8612
X6.1675Y-4.9612
X6.1691Y-3.2175
X6.1691Y-3.3175
X6.3189Y-4.2079
X6.3189Y-4.3079
X6.3189Y-4.4079
X6.3189Y-4.5079
X6.3189Y-4.6079
X6.3189Y-4.7079
T2
G00X6.5819Y-4.9652
M15
G01X6.5819Y-5.0085
M16
G05
G00X6.5819Y-5.1396
M15
G01X6.5819Y-5.1632
M16
G05
G00X6.922Y-4.9652
M15
G01X6.922Y-5.0085
M16
G05
G00X6.922Y-5.1396
M15
G01X6.922Y-5.1632
M16
G05
M30
