%TF.GenerationSoftware,KiCad,Pcbnew,8.0.7*%
%TF.CreationDate,2026-09-16T23:54:38+05:30*%
%TF.ProjectId,STM32 TEST,53544d33-3220-4544-9553-542e6b696361,rev?*%
%TF.SameCoordinates,Original*%
%TF.FileFunction,Soldermask,Top*%
%TF.FilePolarity,Negative*%
%FSLAX46Y46*%
G04 Gerber Fmt 4.6, Leading zero omitted, Abs format (unit mm)*
G04 Created by KiCad (PCBNEW 8.0.7) date 2026-09-16 23:54:38*
%MOMM*%
%LPD*%
G01*
G04 APERTURE LIST*
G04 Aperture macros list*
%AMRoundRect*
0 Rectangle with rounded corners*
0 $1 Rounding radius*
0 $2 $3 $4 $5 $6 $7 $8 $9 X,Y pos of 4 corners*
0 Add a 4 corners polygon primitive as box body*
4,1,4,$2,$3,$4,$5,$6,$7,$8,$9,$2,$3,0*
0 Add four circle primitives for the rounded corners*
1,1,$1+$1,$2,$3*
1,1,$1+$1,$4,$5*
1,1,$1+$1,$6,$7*
1,1,$1+$1,$8,$9*
0 Add four rect primitives between the rounded corners*
20,1,$1+$1,$2,$3,$4,$5,0*
20,1,$1+$1,$4,$5,$6,$7,0*
20,1,$1+$1,$6,$7,$8,$9,0*
20,1,$1+$1,$8,$9,$2,$3,0*%
%AMRotRect*
0 Rectangle, with rotation*
0 The origin of the aperture is its center*
0 $1 length*
0 $2 width*
0 $3 Rotation angle, in degrees counterclockwise*
0 Add horizontal line*
21,1,$1,$2,0,0,$3*%
%AMFreePoly0*
4,1,19,0.000000,0.744911,0.071157,0.744911,0.207708,0.704816,0.327430,0.627875,0.420627,0.520320,0.479746,0.390866,0.500000,0.250000,0.500000,-0.250000,0.479746,-0.390866,0.420627,-0.520320,0.327430,-0.627875,0.207708,-0.704816,0.071157,-0.744911,0.000000,-0.744911,0.000000,-0.750000,-0.500000,-0.750000,-0.500000,0.750000,0.000000,0.750000,0.000000,0.744911,0.000000,0.744911,
$1*%
%AMFreePoly1*
4,1,19,0.500000,-0.750000,0.000000,-0.750000,0.000000,-0.744911,-0.071157,-0.744911,-0.207708,-0.704816,-0.327430,-0.627875,-0.420627,-0.520320,-0.479746,-0.390866,-0.500000,-0.250000,-0.500000,0.250000,-0.479746,0.390866,-0.420627,0.520320,-0.327430,0.627875,-0.207708,0.704816,-0.071157,0.744911,0.000000,0.744911,0.000000,0.750000,0.500000,0.750000,0.500000,-0.750000,0.500000,-0.750000,
$1*%
G04 Aperture macros list end*
%ADD10C,3.200000*%
%ADD11O,1.700000X1.700000*%
%ADD12R,1.700000X1.700000*%
%ADD13RoundRect,0.250000X-0.350000X-0.450000X0.350000X-0.450000X0.350000X0.450000X-0.350000X0.450000X0*%
%ADD14RoundRect,0.250000X0.337500X0.475000X-0.337500X0.475000X-0.337500X-0.475000X0.337500X-0.475000X0*%
%ADD15RoundRect,0.250000X0.325000X0.450000X-0.325000X0.450000X-0.325000X-0.450000X0.325000X-0.450000X0*%
%ADD16RoundRect,0.250000X-0.325000X-0.450000X0.325000X-0.450000X0.325000X0.450000X-0.325000X0.450000X0*%
%ADD17FreePoly0,180.000000*%
%ADD18FreePoly1,180.000000*%
%ADD19RoundRect,0.250000X0.574524X0.097227X0.097227X0.574524X-0.574524X-0.097227X-0.097227X-0.574524X0*%
%ADD20RoundRect,0.250000X0.350000X0.450000X-0.350000X0.450000X-0.350000X-0.450000X0.350000X-0.450000X0*%
%ADD21RotRect,1.000000X1.800000X135.000000*%
%ADD22RoundRect,0.250000X0.088388X-0.548008X0.548008X-0.088388X-0.088388X0.548008X-0.548008X0.088388X0*%
%ADD23RoundRect,0.250001X0.462499X0.624999X-0.462499X0.624999X-0.462499X-0.624999X0.462499X-0.624999X0*%
%ADD24RoundRect,0.250000X-0.097227X0.574524X-0.574524X0.097227X0.097227X-0.574524X0.574524X-0.097227X0*%
%ADD25O,1.000000X1.600000*%
%ADD26O,1.000000X2.100000*%
%ADD27R,0.600000X1.450000*%
%ADD28R,0.300000X1.450000*%
%ADD29C,0.650000*%
%ADD30RoundRect,0.250000X0.097227X-0.574524X0.574524X-0.097227X-0.097227X0.574524X-0.574524X0.097227X0*%
%ADD31RoundRect,0.075000X-0.441942X0.548008X-0.548008X0.441942X0.441942X-0.548008X0.548008X-0.441942X0*%
%ADD32RoundRect,0.075000X0.441942X0.548008X-0.548008X-0.441942X-0.441942X-0.548008X0.548008X0.441942X0*%
%ADD33RoundRect,0.250000X-0.475000X0.337500X-0.475000X-0.337500X0.475000X-0.337500X0.475000X0.337500X0*%
%ADD34RoundRect,0.250000X0.450000X-0.350000X0.450000X0.350000X-0.450000X0.350000X-0.450000X-0.350000X0*%
%ADD35RotRect,1.600000X1.300000X135.000000*%
%ADD36RoundRect,0.150000X0.150000X-0.512500X0.150000X0.512500X-0.150000X0.512500X-0.150000X-0.512500X0*%
%ADD37RoundRect,0.100000X-0.225000X-0.100000X0.225000X-0.100000X0.225000X0.100000X-0.225000X0.100000X0*%
%ADD38RoundRect,0.375000X0.375000X-0.625000X0.375000X0.625000X-0.375000X0.625000X-0.375000X-0.625000X0*%
%ADD39RoundRect,0.500000X1.400000X-0.500000X1.400000X0.500000X-1.400000X0.500000X-1.400000X-0.500000X0*%
%ADD40RoundRect,0.250000X-0.450000X0.350000X-0.450000X-0.350000X0.450000X-0.350000X0.450000X0.350000X0*%
%ADD41R,0.900000X1.000000*%
%ADD42O,1.750000X1.200000*%
%ADD43RoundRect,0.250000X-0.625000X0.350000X-0.625000X-0.350000X0.625000X-0.350000X0.625000X0.350000X0*%
%ADD44C,1.500000*%
G04 APERTURE END LIST*
D10*
%TO.C,*%
X183000000Y-131000000D03*
%TD*%
%TO.C,*%
X129250000Y-80250000D03*
%TD*%
%TO.C,REF\u002A\u002A*%
X183000000Y-80250000D03*
%TD*%
D11*
%TO.C,J5*%
X133835000Y-84264340D03*
X133835000Y-81724340D03*
X136375000Y-84264340D03*
X136375000Y-81724340D03*
X138915000Y-84264340D03*
X138915000Y-81724340D03*
X141455000Y-84264340D03*
X141455000Y-81724340D03*
X143995000Y-84264340D03*
X143995000Y-81724340D03*
X146535000Y-84264340D03*
X146535000Y-81724340D03*
X149075000Y-84264340D03*
X149075000Y-81724340D03*
X151615000Y-84264340D03*
X151615000Y-81724340D03*
X154155000Y-84264340D03*
X154155000Y-81724340D03*
X156695000Y-84264340D03*
D12*
X156695000Y-81724340D03*
%TD*%
D13*
%TO.C,R4*%
X154250000Y-131750000D03*
X152250000Y-131750000D03*
%TD*%
D14*
%TO.C,C15*%
X179212500Y-86750000D03*
X181287500Y-86750000D03*
%TD*%
D15*
%TO.C,D2*%
X177024999Y-99250000D03*
X174975001Y-99250000D03*
%TD*%
D16*
%TO.C,D3*%
X167524999Y-119250000D03*
X165475001Y-119250000D03*
%TD*%
D17*
%TO.C,JP1*%
X156100001Y-131750000D03*
D18*
X157399999Y-131750000D03*
%TD*%
D19*
%TO.C,C5*%
X156502246Y-100691586D03*
X155035000Y-99224340D03*
%TD*%
D20*
%TO.C,R7*%
X172750000Y-99250000D03*
X170750000Y-99250000D03*
%TD*%
D21*
%TO.C,Y2*%
X153320267Y-100691586D03*
X155088033Y-102459352D03*
%TD*%
D22*
%TO.C,FB1*%
X145242106Y-94678399D03*
X143792538Y-96127967D03*
%TD*%
D23*
%TO.C,F1*%
X171987500Y-122250000D03*
X169012500Y-122250000D03*
%TD*%
D24*
%TO.C,C13*%
X135301377Y-101707963D03*
X136768623Y-100240717D03*
%TD*%
D20*
%TO.C,R6*%
X172750000Y-96750001D03*
X170750000Y-96750001D03*
%TD*%
%TO.C,R5*%
X152250000Y-129000000D03*
X154250000Y-129000000D03*
%TD*%
D25*
%TO.C,J1*%
X175820000Y-130845000D03*
D26*
X175820000Y-126665000D03*
D25*
X167180000Y-130845000D03*
D26*
X167180000Y-126665000D03*
D27*
X168250000Y-125750000D03*
X169049999Y-125750000D03*
D28*
X169750000Y-125750000D03*
X170750000Y-125750000D03*
X172250000Y-125750000D03*
X173250000Y-125750000D03*
D27*
X173950001Y-125750000D03*
X174750000Y-125750000D03*
X174750000Y-125750000D03*
X173950001Y-125750000D03*
D28*
X172750000Y-125750001D03*
X171750000Y-125750000D03*
X171250000Y-125750000D03*
X170250000Y-125750001D03*
D27*
X169049999Y-125750000D03*
X168250000Y-125750000D03*
D29*
X174390000Y-127195000D03*
X168610000Y-127195000D03*
%TD*%
D30*
%TO.C,C3*%
X156325470Y-103680414D03*
X157792716Y-102213168D03*
%TD*%
D31*
%TO.C,U3*%
X151199481Y-105585521D03*
X150845928Y-105939074D03*
X150492375Y-106292627D03*
X150138821Y-106646181D03*
X149785268Y-106999734D03*
X149431714Y-107353288D03*
X149078161Y-107706841D03*
X148724608Y-108060394D03*
X148371054Y-108413948D03*
X148017501Y-108767501D03*
X147663948Y-109121054D03*
X147310394Y-109474608D03*
X146956841Y-109828161D03*
X146603287Y-110181715D03*
X146249734Y-110535268D03*
X145896181Y-110888821D03*
D32*
X143173819Y-110888821D03*
X142820266Y-110535268D03*
X142466713Y-110181715D03*
X142113159Y-109828161D03*
X141759606Y-109474608D03*
X141406052Y-109121054D03*
X141052499Y-108767501D03*
X140698946Y-108413948D03*
X140345392Y-108060394D03*
X139991839Y-107706841D03*
X139638286Y-107353288D03*
X139284732Y-106999734D03*
X138931179Y-106646181D03*
X138577625Y-106292627D03*
X138224072Y-105939074D03*
X137870519Y-105585521D03*
D31*
X137870519Y-102863159D03*
X138224072Y-102509606D03*
X138577625Y-102156053D03*
X138931179Y-101802499D03*
X139284732Y-101448946D03*
X139638286Y-101095392D03*
X139991839Y-100741839D03*
X140345392Y-100388286D03*
X140698946Y-100034732D03*
X141052499Y-99681179D03*
X141406052Y-99327626D03*
X141759606Y-98974072D03*
X142113159Y-98620519D03*
X142466713Y-98266965D03*
X142820266Y-97913412D03*
X143173819Y-97559859D03*
D32*
X145896181Y-97559859D03*
X146249734Y-97913412D03*
X146603287Y-98266965D03*
X146956841Y-98620519D03*
X147310394Y-98974072D03*
X147663948Y-99327626D03*
X148017501Y-99681179D03*
X148371054Y-100034732D03*
X148724608Y-100388286D03*
X149078161Y-100741839D03*
X149431714Y-101095392D03*
X149785268Y-101448946D03*
X150138821Y-101802499D03*
X150492375Y-102156053D03*
X150845928Y-102509606D03*
X151199481Y-102863159D03*
%TD*%
D11*
%TO.C,J3*%
X160500000Y-119580000D03*
X160500000Y-117040000D03*
X160500000Y-114500000D03*
X160500000Y-111959999D03*
X160500000Y-109420000D03*
D12*
X160500000Y-106880000D03*
%TD*%
D33*
%TO.C,C1*%
X167000000Y-121212500D03*
X167000000Y-123287500D03*
%TD*%
D14*
%TO.C,C17*%
X173537499Y-114750000D03*
X171462499Y-114750000D03*
%TD*%
D34*
%TO.C,R1*%
X174000001Y-122250000D03*
X174000001Y-120250000D03*
%TD*%
D14*
%TO.C,C12*%
X182287500Y-101250000D03*
X180212500Y-101250000D03*
%TD*%
D24*
%TO.C,C10*%
X142413680Y-94678398D03*
X143880926Y-93211152D03*
%TD*%
D14*
%TO.C,C18*%
X169449999Y-114750000D03*
X167374999Y-114750000D03*
%TD*%
%TO.C,C16*%
X173487500Y-112500000D03*
X171412500Y-112500000D03*
%TD*%
D24*
%TO.C,C11*%
X140999467Y-93264185D03*
X142466713Y-91796939D03*
%TD*%
D30*
%TO.C,C6*%
X150574169Y-92753370D03*
X149106923Y-94220616D03*
%TD*%
D17*
%TO.C,JP2*%
X156100000Y-129250000D03*
D18*
X157399998Y-129250000D03*
%TD*%
D19*
%TO.C,C2*%
X153323047Y-95201727D03*
X154790293Y-96668973D03*
%TD*%
D35*
%TO.C,Y1*%
X153199303Y-97906410D03*
X150865851Y-95572958D03*
X149451637Y-96987172D03*
X151785089Y-99320624D03*
%TD*%
D36*
%TO.C,U2*%
X177050001Y-121387500D03*
X178000000Y-121387500D03*
X178949999Y-121387500D03*
X178949999Y-119112500D03*
X178000000Y-119112500D03*
X177050001Y-119112500D03*
%TD*%
D20*
%TO.C,R8*%
X169450000Y-117100000D03*
X167450000Y-117100000D03*
%TD*%
D11*
%TO.C,J7*%
X133795000Y-126014340D03*
X133795000Y-123474340D03*
X136335000Y-126014340D03*
X136335000Y-123474340D03*
X138875000Y-126014340D03*
X138875000Y-123474340D03*
X141415000Y-126014340D03*
X141415000Y-123474340D03*
X143955000Y-126014340D03*
X143955000Y-123474340D03*
X146495000Y-126014340D03*
X146495000Y-123474340D03*
X149035000Y-126014340D03*
X149035000Y-123474340D03*
X151575000Y-126014340D03*
X151575000Y-123474340D03*
X154115000Y-126014340D03*
X154115000Y-123474340D03*
X156655000Y-126014340D03*
D12*
X156655000Y-123474340D03*
%TD*%
D37*
%TO.C,U1*%
X169550000Y-118850000D03*
X169550001Y-119500000D03*
X169550000Y-120150000D03*
X171450000Y-120150000D03*
X171449999Y-119500000D03*
X171450000Y-118850000D03*
%TD*%
D38*
%TO.C,U4*%
X169412500Y-109650000D03*
X171712500Y-109649999D03*
D39*
X171712500Y-103350001D03*
D38*
X174012500Y-109650000D03*
%TD*%
D14*
%TO.C,C19*%
X169487500Y-112500000D03*
X167412500Y-112500000D03*
%TD*%
D15*
%TO.C,D1*%
X177024999Y-96750000D03*
X174975001Y-96750000D03*
%TD*%
D40*
%TO.C,R2*%
X178000000Y-124500000D03*
X178000000Y-126500000D03*
%TD*%
D10*
%TO.C,*%
X129250000Y-131000000D03*
%TD*%
D41*
%TO.C,SW3*%
X178450000Y-105450000D03*
X182550000Y-105450000D03*
X178450000Y-107050000D03*
X182550000Y-107050000D03*
%TD*%
%TO.C,SW2*%
X178200001Y-88950000D03*
X182299999Y-88950000D03*
X178200001Y-90550000D03*
X182299999Y-90550000D03*
%TD*%
%TO.C,SW1*%
X183299999Y-98800000D03*
X179200001Y-98800000D03*
X183299999Y-97200000D03*
X179200001Y-97200000D03*
%TD*%
D42*
%TO.C,J4*%
X154250000Y-118999999D03*
X154250000Y-116999999D03*
X154250000Y-115000000D03*
D43*
X154250000Y-112999999D03*
%TD*%
%TO.C,J2*%
X133250000Y-113000000D03*
D42*
X133250000Y-115000001D03*
X133250000Y-117000000D03*
X133250000Y-119000000D03*
%TD*%
D44*
%TO.C,TP1*%
X176250000Y-116250000D03*
%TD*%
%TO.C,TP2*%
X164250000Y-115500000D03*
%TD*%
%TO.C,TP3*%
X178750000Y-129500000D03*
%TD*%
%TO.C,TP4*%
X144535000Y-89974340D03*
%TD*%
%TO.C,TP5*%
X134285000Y-98224340D03*
%TD*%
%TO.C,TP6*%
X152535000Y-108474340D03*
%TD*%
%TO.C,TP7*%
X181500000Y-123000000D03*
%TD*%
%TO.C,TP8*%
X181500000Y-119250000D03*
%TD*%
M02*
