%TF.GenerationSoftware,KiCad,Pcbnew,8.0.7*%
%TF.CreationDate,2026-09-16T23:54:37+05:30*%
%TF.ProjectId,STM32 TEST,53544d33-3220-4544-9553-542e6b696361,rev?*%
%TF.SameCoordinates,Original*%
%TF.FileFunction,Legend,Top*%
%TF.FilePolarity,Positive*%
%FSLAX46Y46*%
G04 Gerber Fmt 4.6, Leading zero omitted, Abs format (unit mm)*
G04 Created by KiCad (PCBNEW 8.0.7) date 2026-09-16 23:54:37*
%MOMM*%
%LPD*%
G01*
G04 APERTURE LIST*
%ADD10C,0.100000*%
%ADD11C,0.150000*%
%ADD12C,0.120000*%
G04 APERTURE END LIST*
D10*
X153427693Y-121320038D02*
X153332455Y-121272419D01*
X153332455Y-121272419D02*
X153189598Y-121272419D01*
X153189598Y-121272419D02*
X153046741Y-121320038D01*
X153046741Y-121320038D02*
X152951503Y-121415276D01*
X152951503Y-121415276D02*
X152903884Y-121510514D01*
X152903884Y-121510514D02*
X152856265Y-121700990D01*
X152856265Y-121700990D02*
X152856265Y-121843847D01*
X152856265Y-121843847D02*
X152903884Y-122034323D01*
X152903884Y-122034323D02*
X152951503Y-122129561D01*
X152951503Y-122129561D02*
X153046741Y-122224800D01*
X153046741Y-122224800D02*
X153189598Y-122272419D01*
X153189598Y-122272419D02*
X153284836Y-122272419D01*
X153284836Y-122272419D02*
X153427693Y-122224800D01*
X153427693Y-122224800D02*
X153475312Y-122177180D01*
X153475312Y-122177180D02*
X153475312Y-121843847D01*
X153475312Y-121843847D02*
X153284836Y-121843847D01*
X153903884Y-122272419D02*
X153903884Y-121272419D01*
X153903884Y-121272419D02*
X154475312Y-122272419D01*
X154475312Y-122272419D02*
X154475312Y-121272419D01*
X154951503Y-122272419D02*
X154951503Y-121272419D01*
X154951503Y-121272419D02*
X155189598Y-121272419D01*
X155189598Y-121272419D02*
X155332455Y-121320038D01*
X155332455Y-121320038D02*
X155427693Y-121415276D01*
X155427693Y-121415276D02*
X155475312Y-121510514D01*
X155475312Y-121510514D02*
X155522931Y-121700990D01*
X155522931Y-121700990D02*
X155522931Y-121843847D01*
X155522931Y-121843847D02*
X155475312Y-122034323D01*
X155475312Y-122034323D02*
X155427693Y-122129561D01*
X155427693Y-122129561D02*
X155332455Y-122224800D01*
X155332455Y-122224800D02*
X155189598Y-122272419D01*
X155189598Y-122272419D02*
X154951503Y-122272419D01*
X154679961Y-78027693D02*
X154727580Y-77932455D01*
X154727580Y-77932455D02*
X154727580Y-77789598D01*
X154727580Y-77789598D02*
X154679961Y-77646741D01*
X154679961Y-77646741D02*
X154584723Y-77551503D01*
X154584723Y-77551503D02*
X154489485Y-77503884D01*
X154489485Y-77503884D02*
X154299009Y-77456265D01*
X154299009Y-77456265D02*
X154156152Y-77456265D01*
X154156152Y-77456265D02*
X153965676Y-77503884D01*
X153965676Y-77503884D02*
X153870438Y-77551503D01*
X153870438Y-77551503D02*
X153775200Y-77646741D01*
X153775200Y-77646741D02*
X153727580Y-77789598D01*
X153727580Y-77789598D02*
X153727580Y-77884836D01*
X153727580Y-77884836D02*
X153775200Y-78027693D01*
X153775200Y-78027693D02*
X153822819Y-78075312D01*
X153822819Y-78075312D02*
X154156152Y-78075312D01*
X154156152Y-78075312D02*
X154156152Y-77884836D01*
X153727580Y-78503884D02*
X154727580Y-78503884D01*
X154727580Y-78503884D02*
X153727580Y-79075312D01*
X153727580Y-79075312D02*
X154727580Y-79075312D01*
X153727580Y-79551503D02*
X154727580Y-79551503D01*
X154727580Y-79551503D02*
X154727580Y-79789598D01*
X154727580Y-79789598D02*
X154679961Y-79932455D01*
X154679961Y-79932455D02*
X154584723Y-80027693D01*
X154584723Y-80027693D02*
X154489485Y-80075312D01*
X154489485Y-80075312D02*
X154299009Y-80122931D01*
X154299009Y-80122931D02*
X154156152Y-80122931D01*
X154156152Y-80122931D02*
X153965676Y-80075312D01*
X153965676Y-80075312D02*
X153870438Y-80027693D01*
X153870438Y-80027693D02*
X153775200Y-79932455D01*
X153775200Y-79932455D02*
X153727580Y-79789598D01*
X153727580Y-79789598D02*
X153727580Y-79551503D01*
X162208646Y-106472419D02*
X162827693Y-106472419D01*
X162827693Y-106472419D02*
X162494360Y-106853371D01*
X162494360Y-106853371D02*
X162637217Y-106853371D01*
X162637217Y-106853371D02*
X162732455Y-106900990D01*
X162732455Y-106900990D02*
X162780074Y-106948609D01*
X162780074Y-106948609D02*
X162827693Y-107043847D01*
X162827693Y-107043847D02*
X162827693Y-107281942D01*
X162827693Y-107281942D02*
X162780074Y-107377180D01*
X162780074Y-107377180D02*
X162732455Y-107424800D01*
X162732455Y-107424800D02*
X162637217Y-107472419D01*
X162637217Y-107472419D02*
X162351503Y-107472419D01*
X162351503Y-107472419D02*
X162256265Y-107424800D01*
X162256265Y-107424800D02*
X162208646Y-107377180D01*
X163113408Y-106472419D02*
X163446741Y-107472419D01*
X163446741Y-107472419D02*
X163780074Y-106472419D01*
X164018170Y-106472419D02*
X164637217Y-106472419D01*
X164637217Y-106472419D02*
X164303884Y-106853371D01*
X164303884Y-106853371D02*
X164446741Y-106853371D01*
X164446741Y-106853371D02*
X164541979Y-106900990D01*
X164541979Y-106900990D02*
X164589598Y-106948609D01*
X164589598Y-106948609D02*
X164637217Y-107043847D01*
X164637217Y-107043847D02*
X164637217Y-107281942D01*
X164637217Y-107281942D02*
X164589598Y-107377180D01*
X164589598Y-107377180D02*
X164541979Y-107424800D01*
X164541979Y-107424800D02*
X164446741Y-107472419D01*
X164446741Y-107472419D02*
X164161027Y-107472419D01*
X164161027Y-107472419D02*
X164065789Y-107424800D01*
X164065789Y-107424800D02*
X164018170Y-107377180D01*
X162427693Y-111520038D02*
X162332455Y-111472419D01*
X162332455Y-111472419D02*
X162189598Y-111472419D01*
X162189598Y-111472419D02*
X162046741Y-111520038D01*
X162046741Y-111520038D02*
X161951503Y-111615276D01*
X161951503Y-111615276D02*
X161903884Y-111710514D01*
X161903884Y-111710514D02*
X161856265Y-111900990D01*
X161856265Y-111900990D02*
X161856265Y-112043847D01*
X161856265Y-112043847D02*
X161903884Y-112234323D01*
X161903884Y-112234323D02*
X161951503Y-112329561D01*
X161951503Y-112329561D02*
X162046741Y-112424800D01*
X162046741Y-112424800D02*
X162189598Y-112472419D01*
X162189598Y-112472419D02*
X162284836Y-112472419D01*
X162284836Y-112472419D02*
X162427693Y-112424800D01*
X162427693Y-112424800D02*
X162475312Y-112377180D01*
X162475312Y-112377180D02*
X162475312Y-112043847D01*
X162475312Y-112043847D02*
X162284836Y-112043847D01*
X162903884Y-112472419D02*
X162903884Y-111472419D01*
X162903884Y-111472419D02*
X163475312Y-112472419D01*
X163475312Y-112472419D02*
X163475312Y-111472419D01*
X163951503Y-112472419D02*
X163951503Y-111472419D01*
X163951503Y-111472419D02*
X164189598Y-111472419D01*
X164189598Y-111472419D02*
X164332455Y-111520038D01*
X164332455Y-111520038D02*
X164427693Y-111615276D01*
X164427693Y-111615276D02*
X164475312Y-111710514D01*
X164475312Y-111710514D02*
X164522931Y-111900990D01*
X164522931Y-111900990D02*
X164522931Y-112043847D01*
X164522931Y-112043847D02*
X164475312Y-112234323D01*
X164475312Y-112234323D02*
X164427693Y-112329561D01*
X164427693Y-112329561D02*
X164332455Y-112424800D01*
X164332455Y-112424800D02*
X164189598Y-112472419D01*
X164189598Y-112472419D02*
X163951503Y-112472419D01*
X157139961Y-119327692D02*
X157187580Y-119232454D01*
X157187580Y-119232454D02*
X157187580Y-119089597D01*
X157187580Y-119089597D02*
X157139961Y-118946740D01*
X157139961Y-118946740D02*
X157044723Y-118851502D01*
X157044723Y-118851502D02*
X156949485Y-118803883D01*
X156949485Y-118803883D02*
X156759009Y-118756264D01*
X156759009Y-118756264D02*
X156616152Y-118756264D01*
X156616152Y-118756264D02*
X156425676Y-118803883D01*
X156425676Y-118803883D02*
X156330438Y-118851502D01*
X156330438Y-118851502D02*
X156235200Y-118946740D01*
X156235200Y-118946740D02*
X156187580Y-119089597D01*
X156187580Y-119089597D02*
X156187580Y-119184835D01*
X156187580Y-119184835D02*
X156235200Y-119327692D01*
X156235200Y-119327692D02*
X156282819Y-119375311D01*
X156282819Y-119375311D02*
X156616152Y-119375311D01*
X156616152Y-119375311D02*
X156616152Y-119184835D01*
X156187580Y-119803883D02*
X157187580Y-119803883D01*
X157187580Y-119803883D02*
X156187580Y-120375311D01*
X156187580Y-120375311D02*
X157187580Y-120375311D01*
X156187580Y-120851502D02*
X157187580Y-120851502D01*
X157187580Y-120851502D02*
X157187580Y-121089597D01*
X157187580Y-121089597D02*
X157139961Y-121232454D01*
X157139961Y-121232454D02*
X157044723Y-121327692D01*
X157044723Y-121327692D02*
X156949485Y-121375311D01*
X156949485Y-121375311D02*
X156759009Y-121422930D01*
X156759009Y-121422930D02*
X156616152Y-121422930D01*
X156616152Y-121422930D02*
X156425676Y-121375311D01*
X156425676Y-121375311D02*
X156330438Y-121327692D01*
X156330438Y-121327692D02*
X156235200Y-121232454D01*
X156235200Y-121232454D02*
X156187580Y-121089597D01*
X156187580Y-121089597D02*
X156187580Y-120851502D01*
X128027693Y-118720038D02*
X127932455Y-118672419D01*
X127932455Y-118672419D02*
X127789598Y-118672419D01*
X127789598Y-118672419D02*
X127646741Y-118720038D01*
X127646741Y-118720038D02*
X127551503Y-118815276D01*
X127551503Y-118815276D02*
X127503884Y-118910514D01*
X127503884Y-118910514D02*
X127456265Y-119100990D01*
X127456265Y-119100990D02*
X127456265Y-119243847D01*
X127456265Y-119243847D02*
X127503884Y-119434323D01*
X127503884Y-119434323D02*
X127551503Y-119529561D01*
X127551503Y-119529561D02*
X127646741Y-119624800D01*
X127646741Y-119624800D02*
X127789598Y-119672419D01*
X127789598Y-119672419D02*
X127884836Y-119672419D01*
X127884836Y-119672419D02*
X128027693Y-119624800D01*
X128027693Y-119624800D02*
X128075312Y-119577180D01*
X128075312Y-119577180D02*
X128075312Y-119243847D01*
X128075312Y-119243847D02*
X127884836Y-119243847D01*
X128503884Y-119672419D02*
X128503884Y-118672419D01*
X128503884Y-118672419D02*
X129075312Y-119672419D01*
X129075312Y-119672419D02*
X129075312Y-118672419D01*
X129551503Y-119672419D02*
X129551503Y-118672419D01*
X129551503Y-118672419D02*
X129789598Y-118672419D01*
X129789598Y-118672419D02*
X129932455Y-118720038D01*
X129932455Y-118720038D02*
X130027693Y-118815276D01*
X130027693Y-118815276D02*
X130075312Y-118910514D01*
X130075312Y-118910514D02*
X130122931Y-119100990D01*
X130122931Y-119100990D02*
X130122931Y-119243847D01*
X130122931Y-119243847D02*
X130075312Y-119434323D01*
X130075312Y-119434323D02*
X130027693Y-119529561D01*
X130027693Y-119529561D02*
X129932455Y-119624800D01*
X129932455Y-119624800D02*
X129789598Y-119672419D01*
X129789598Y-119672419D02*
X129551503Y-119672419D01*
X153008646Y-109672419D02*
X153627693Y-109672419D01*
X153627693Y-109672419D02*
X153294360Y-110053371D01*
X153294360Y-110053371D02*
X153437217Y-110053371D01*
X153437217Y-110053371D02*
X153532455Y-110100990D01*
X153532455Y-110100990D02*
X153580074Y-110148609D01*
X153580074Y-110148609D02*
X153627693Y-110243847D01*
X153627693Y-110243847D02*
X153627693Y-110481942D01*
X153627693Y-110481942D02*
X153580074Y-110577180D01*
X153580074Y-110577180D02*
X153532455Y-110624800D01*
X153532455Y-110624800D02*
X153437217Y-110672419D01*
X153437217Y-110672419D02*
X153151503Y-110672419D01*
X153151503Y-110672419D02*
X153056265Y-110624800D01*
X153056265Y-110624800D02*
X153008646Y-110577180D01*
X153913408Y-109672419D02*
X154246741Y-110672419D01*
X154246741Y-110672419D02*
X154580074Y-109672419D01*
X154818170Y-109672419D02*
X155437217Y-109672419D01*
X155437217Y-109672419D02*
X155103884Y-110053371D01*
X155103884Y-110053371D02*
X155246741Y-110053371D01*
X155246741Y-110053371D02*
X155341979Y-110100990D01*
X155341979Y-110100990D02*
X155389598Y-110148609D01*
X155389598Y-110148609D02*
X155437217Y-110243847D01*
X155437217Y-110243847D02*
X155437217Y-110481942D01*
X155437217Y-110481942D02*
X155389598Y-110577180D01*
X155389598Y-110577180D02*
X155341979Y-110624800D01*
X155341979Y-110624800D02*
X155246741Y-110672419D01*
X155246741Y-110672419D02*
X154961027Y-110672419D01*
X154961027Y-110672419D02*
X154865789Y-110624800D01*
X154865789Y-110624800D02*
X154818170Y-110577180D01*
X132008646Y-109472419D02*
X132627693Y-109472419D01*
X132627693Y-109472419D02*
X132294360Y-109853371D01*
X132294360Y-109853371D02*
X132437217Y-109853371D01*
X132437217Y-109853371D02*
X132532455Y-109900990D01*
X132532455Y-109900990D02*
X132580074Y-109948609D01*
X132580074Y-109948609D02*
X132627693Y-110043847D01*
X132627693Y-110043847D02*
X132627693Y-110281942D01*
X132627693Y-110281942D02*
X132580074Y-110377180D01*
X132580074Y-110377180D02*
X132532455Y-110424800D01*
X132532455Y-110424800D02*
X132437217Y-110472419D01*
X132437217Y-110472419D02*
X132151503Y-110472419D01*
X132151503Y-110472419D02*
X132056265Y-110424800D01*
X132056265Y-110424800D02*
X132008646Y-110377180D01*
X132913408Y-109472419D02*
X133246741Y-110472419D01*
X133246741Y-110472419D02*
X133580074Y-109472419D01*
X133818170Y-109472419D02*
X134437217Y-109472419D01*
X134437217Y-109472419D02*
X134103884Y-109853371D01*
X134103884Y-109853371D02*
X134246741Y-109853371D01*
X134246741Y-109853371D02*
X134341979Y-109900990D01*
X134341979Y-109900990D02*
X134389598Y-109948609D01*
X134389598Y-109948609D02*
X134437217Y-110043847D01*
X134437217Y-110043847D02*
X134437217Y-110281942D01*
X134437217Y-110281942D02*
X134389598Y-110377180D01*
X134389598Y-110377180D02*
X134341979Y-110424800D01*
X134341979Y-110424800D02*
X134246741Y-110472419D01*
X134246741Y-110472419D02*
X133961027Y-110472419D01*
X133961027Y-110472419D02*
X133865789Y-110424800D01*
X133865789Y-110424800D02*
X133818170Y-110377180D01*
D11*
X181666666Y-76504819D02*
X181333333Y-76028628D01*
X181095238Y-76504819D02*
X181095238Y-75504819D01*
X181095238Y-75504819D02*
X181476190Y-75504819D01*
X181476190Y-75504819D02*
X181571428Y-75552438D01*
X181571428Y-75552438D02*
X181619047Y-75600057D01*
X181619047Y-75600057D02*
X181666666Y-75695295D01*
X181666666Y-75695295D02*
X181666666Y-75838152D01*
X181666666Y-75838152D02*
X181619047Y-75933390D01*
X181619047Y-75933390D02*
X181571428Y-75981009D01*
X181571428Y-75981009D02*
X181476190Y-76028628D01*
X181476190Y-76028628D02*
X181095238Y-76028628D01*
X182095238Y-75981009D02*
X182428571Y-75981009D01*
X182571428Y-76504819D02*
X182095238Y-76504819D01*
X182095238Y-76504819D02*
X182095238Y-75504819D01*
X182095238Y-75504819D02*
X182571428Y-75504819D01*
X183333333Y-75981009D02*
X183000000Y-75981009D01*
X183000000Y-76504819D02*
X183000000Y-75504819D01*
X183000000Y-75504819D02*
X183476190Y-75504819D01*
X184000000Y-75504819D02*
X184000000Y-75742914D01*
X183761905Y-75647676D02*
X184000000Y-75742914D01*
X184000000Y-75742914D02*
X184238095Y-75647676D01*
X183857143Y-75933390D02*
X184000000Y-75742914D01*
X184000000Y-75742914D02*
X184142857Y-75933390D01*
X184761905Y-75504819D02*
X184761905Y-75742914D01*
X184523810Y-75647676D02*
X184761905Y-75742914D01*
X184761905Y-75742914D02*
X185000000Y-75647676D01*
X184619048Y-75933390D02*
X184761905Y-75742914D01*
X184761905Y-75742914D02*
X184904762Y-75933390D01*
X171836005Y-93929819D02*
X171836005Y-94644104D01*
X171836005Y-94644104D02*
X171788386Y-94786961D01*
X171788386Y-94786961D02*
X171693148Y-94882200D01*
X171693148Y-94882200D02*
X171550291Y-94929819D01*
X171550291Y-94929819D02*
X171455053Y-94929819D01*
X172788386Y-93929819D02*
X172312196Y-93929819D01*
X172312196Y-93929819D02*
X172264577Y-94406009D01*
X172264577Y-94406009D02*
X172312196Y-94358390D01*
X172312196Y-94358390D02*
X172407434Y-94310771D01*
X172407434Y-94310771D02*
X172645529Y-94310771D01*
X172645529Y-94310771D02*
X172740767Y-94358390D01*
X172740767Y-94358390D02*
X172788386Y-94406009D01*
X172788386Y-94406009D02*
X172836005Y-94501247D01*
X172836005Y-94501247D02*
X172836005Y-94739342D01*
X172836005Y-94739342D02*
X172788386Y-94834580D01*
X172788386Y-94834580D02*
X172740767Y-94882200D01*
X172740767Y-94882200D02*
X172645529Y-94929819D01*
X172645529Y-94929819D02*
X172407434Y-94929819D01*
X172407434Y-94929819D02*
X172312196Y-94882200D01*
X172312196Y-94882200D02*
X172264577Y-94834580D01*
X150083333Y-132204819D02*
X149750000Y-131728628D01*
X149511905Y-132204819D02*
X149511905Y-131204819D01*
X149511905Y-131204819D02*
X149892857Y-131204819D01*
X149892857Y-131204819D02*
X149988095Y-131252438D01*
X149988095Y-131252438D02*
X150035714Y-131300057D01*
X150035714Y-131300057D02*
X150083333Y-131395295D01*
X150083333Y-131395295D02*
X150083333Y-131538152D01*
X150083333Y-131538152D02*
X150035714Y-131633390D01*
X150035714Y-131633390D02*
X149988095Y-131681009D01*
X149988095Y-131681009D02*
X149892857Y-131728628D01*
X149892857Y-131728628D02*
X149511905Y-131728628D01*
X150940476Y-131538152D02*
X150940476Y-132204819D01*
X150702381Y-131157200D02*
X150464286Y-131871485D01*
X150464286Y-131871485D02*
X151083333Y-131871485D01*
X179607142Y-88789579D02*
X179559523Y-88837199D01*
X179559523Y-88837199D02*
X179416666Y-88884818D01*
X179416666Y-88884818D02*
X179321428Y-88884818D01*
X179321428Y-88884818D02*
X179178571Y-88837199D01*
X179178571Y-88837199D02*
X179083333Y-88741960D01*
X179083333Y-88741960D02*
X179035714Y-88646722D01*
X179035714Y-88646722D02*
X178988095Y-88456246D01*
X178988095Y-88456246D02*
X178988095Y-88313389D01*
X178988095Y-88313389D02*
X179035714Y-88122913D01*
X179035714Y-88122913D02*
X179083333Y-88027675D01*
X179083333Y-88027675D02*
X179178571Y-87932437D01*
X179178571Y-87932437D02*
X179321428Y-87884818D01*
X179321428Y-87884818D02*
X179416666Y-87884818D01*
X179416666Y-87884818D02*
X179559523Y-87932437D01*
X179559523Y-87932437D02*
X179607142Y-87980056D01*
X180559523Y-88884818D02*
X179988095Y-88884818D01*
X180273809Y-88884818D02*
X180273809Y-87884818D01*
X180273809Y-87884818D02*
X180178571Y-88027675D01*
X180178571Y-88027675D02*
X180083333Y-88122913D01*
X180083333Y-88122913D02*
X179988095Y-88170532D01*
X181464285Y-87884818D02*
X180988095Y-87884818D01*
X180988095Y-87884818D02*
X180940476Y-88361008D01*
X180940476Y-88361008D02*
X180988095Y-88313389D01*
X180988095Y-88313389D02*
X181083333Y-88265770D01*
X181083333Y-88265770D02*
X181321428Y-88265770D01*
X181321428Y-88265770D02*
X181416666Y-88313389D01*
X181416666Y-88313389D02*
X181464285Y-88361008D01*
X181464285Y-88361008D02*
X181511904Y-88456246D01*
X181511904Y-88456246D02*
X181511904Y-88694341D01*
X181511904Y-88694341D02*
X181464285Y-88789579D01*
X181464285Y-88789579D02*
X181416666Y-88837199D01*
X181416666Y-88837199D02*
X181321428Y-88884818D01*
X181321428Y-88884818D02*
X181083333Y-88884818D01*
X181083333Y-88884818D02*
X180988095Y-88837199D01*
X180988095Y-88837199D02*
X180940476Y-88789579D01*
X172274404Y-99704819D02*
X172274404Y-98704819D01*
X172274404Y-98704819D02*
X172512499Y-98704819D01*
X172512499Y-98704819D02*
X172655356Y-98752438D01*
X172655356Y-98752438D02*
X172750594Y-98847676D01*
X172750594Y-98847676D02*
X172798213Y-98942914D01*
X172798213Y-98942914D02*
X172845832Y-99133390D01*
X172845832Y-99133390D02*
X172845832Y-99276247D01*
X172845832Y-99276247D02*
X172798213Y-99466723D01*
X172798213Y-99466723D02*
X172750594Y-99561961D01*
X172750594Y-99561961D02*
X172655356Y-99657200D01*
X172655356Y-99657200D02*
X172512499Y-99704819D01*
X172512499Y-99704819D02*
X172274404Y-99704819D01*
X173226785Y-98800057D02*
X173274404Y-98752438D01*
X173274404Y-98752438D02*
X173369642Y-98704819D01*
X173369642Y-98704819D02*
X173607737Y-98704819D01*
X173607737Y-98704819D02*
X173702975Y-98752438D01*
X173702975Y-98752438D02*
X173750594Y-98800057D01*
X173750594Y-98800057D02*
X173798213Y-98895295D01*
X173798213Y-98895295D02*
X173798213Y-98990533D01*
X173798213Y-98990533D02*
X173750594Y-99133390D01*
X173750594Y-99133390D02*
X173179166Y-99704819D01*
X173179166Y-99704819D02*
X173798213Y-99704819D01*
X164461905Y-121654819D02*
X164461905Y-120654819D01*
X164461905Y-120654819D02*
X164700000Y-120654819D01*
X164700000Y-120654819D02*
X164842857Y-120702438D01*
X164842857Y-120702438D02*
X164938095Y-120797676D01*
X164938095Y-120797676D02*
X164985714Y-120892914D01*
X164985714Y-120892914D02*
X165033333Y-121083390D01*
X165033333Y-121083390D02*
X165033333Y-121226247D01*
X165033333Y-121226247D02*
X164985714Y-121416723D01*
X164985714Y-121416723D02*
X164938095Y-121511961D01*
X164938095Y-121511961D02*
X164842857Y-121607200D01*
X164842857Y-121607200D02*
X164700000Y-121654819D01*
X164700000Y-121654819D02*
X164461905Y-121654819D01*
X165366667Y-120654819D02*
X165985714Y-120654819D01*
X165985714Y-120654819D02*
X165652381Y-121035771D01*
X165652381Y-121035771D02*
X165795238Y-121035771D01*
X165795238Y-121035771D02*
X165890476Y-121083390D01*
X165890476Y-121083390D02*
X165938095Y-121131009D01*
X165938095Y-121131009D02*
X165985714Y-121226247D01*
X165985714Y-121226247D02*
X165985714Y-121464342D01*
X165985714Y-121464342D02*
X165938095Y-121559580D01*
X165938095Y-121559580D02*
X165890476Y-121607200D01*
X165890476Y-121607200D02*
X165795238Y-121654819D01*
X165795238Y-121654819D02*
X165509524Y-121654819D01*
X165509524Y-121654819D02*
X165414286Y-121607200D01*
X165414286Y-121607200D02*
X165366667Y-121559580D01*
X155916666Y-133004819D02*
X155916666Y-133719104D01*
X155916666Y-133719104D02*
X155869047Y-133861961D01*
X155869047Y-133861961D02*
X155773809Y-133957200D01*
X155773809Y-133957200D02*
X155630952Y-134004819D01*
X155630952Y-134004819D02*
X155535714Y-134004819D01*
X156392857Y-134004819D02*
X156392857Y-133004819D01*
X156392857Y-133004819D02*
X156773809Y-133004819D01*
X156773809Y-133004819D02*
X156869047Y-133052438D01*
X156869047Y-133052438D02*
X156916666Y-133100057D01*
X156916666Y-133100057D02*
X156964285Y-133195295D01*
X156964285Y-133195295D02*
X156964285Y-133338152D01*
X156964285Y-133338152D02*
X156916666Y-133433390D01*
X156916666Y-133433390D02*
X156869047Y-133481009D01*
X156869047Y-133481009D02*
X156773809Y-133528628D01*
X156773809Y-133528628D02*
X156392857Y-133528628D01*
X157916666Y-134004819D02*
X157345238Y-134004819D01*
X157630952Y-134004819D02*
X157630952Y-133004819D01*
X157630952Y-133004819D02*
X157535714Y-133147676D01*
X157535714Y-133147676D02*
X157440476Y-133242914D01*
X157440476Y-133242914D02*
X157345238Y-133290533D01*
X156377887Y-98886411D02*
X156310543Y-98886411D01*
X156310543Y-98886411D02*
X156175856Y-98819067D01*
X156175856Y-98819067D02*
X156108513Y-98751724D01*
X156108513Y-98751724D02*
X156041169Y-98617037D01*
X156041169Y-98617037D02*
X156041169Y-98482350D01*
X156041169Y-98482350D02*
X156074841Y-98381335D01*
X156074841Y-98381335D02*
X156175856Y-98212976D01*
X156175856Y-98212976D02*
X156276871Y-98111961D01*
X156276871Y-98111961D02*
X156445230Y-98010945D01*
X156445230Y-98010945D02*
X156546245Y-97977274D01*
X156546245Y-97977274D02*
X156680932Y-97977274D01*
X156680932Y-97977274D02*
X156815619Y-98044617D01*
X156815619Y-98044617D02*
X156882963Y-98111961D01*
X156882963Y-98111961D02*
X156950306Y-98246648D01*
X156950306Y-98246648D02*
X156950306Y-98313991D01*
X157657413Y-98886411D02*
X157320696Y-98549693D01*
X157320696Y-98549693D02*
X156950306Y-98852739D01*
X156950306Y-98852739D02*
X157017650Y-98852739D01*
X157017650Y-98852739D02*
X157118665Y-98886411D01*
X157118665Y-98886411D02*
X157287024Y-99054770D01*
X157287024Y-99054770D02*
X157320696Y-99155785D01*
X157320696Y-99155785D02*
X157320696Y-99223128D01*
X157320696Y-99223128D02*
X157287024Y-99324144D01*
X157287024Y-99324144D02*
X157118665Y-99492502D01*
X157118665Y-99492502D02*
X157017650Y-99526174D01*
X157017650Y-99526174D02*
X156950306Y-99526174D01*
X156950306Y-99526174D02*
X156849291Y-99492502D01*
X156849291Y-99492502D02*
X156680932Y-99324144D01*
X156680932Y-99324144D02*
X156647261Y-99223128D01*
X156647261Y-99223128D02*
X156647261Y-99155785D01*
X171583333Y-101354819D02*
X171250000Y-100878628D01*
X171011905Y-101354819D02*
X171011905Y-100354819D01*
X171011905Y-100354819D02*
X171392857Y-100354819D01*
X171392857Y-100354819D02*
X171488095Y-100402438D01*
X171488095Y-100402438D02*
X171535714Y-100450057D01*
X171535714Y-100450057D02*
X171583333Y-100545295D01*
X171583333Y-100545295D02*
X171583333Y-100688152D01*
X171583333Y-100688152D02*
X171535714Y-100783390D01*
X171535714Y-100783390D02*
X171488095Y-100831009D01*
X171488095Y-100831009D02*
X171392857Y-100878628D01*
X171392857Y-100878628D02*
X171011905Y-100878628D01*
X171916667Y-100354819D02*
X172583333Y-100354819D01*
X172583333Y-100354819D02*
X172154762Y-101354819D01*
X152468330Y-102398170D02*
X152131612Y-102734888D01*
X152603017Y-101792079D02*
X152468330Y-102398170D01*
X152468330Y-102398170D02*
X153074421Y-102263483D01*
X153209108Y-102532857D02*
X153276452Y-102532857D01*
X153276452Y-102532857D02*
X153377467Y-102566529D01*
X153377467Y-102566529D02*
X153545826Y-102734888D01*
X153545826Y-102734888D02*
X153579498Y-102835903D01*
X153579498Y-102835903D02*
X153579498Y-102903246D01*
X153579498Y-102903246D02*
X153545826Y-103004262D01*
X153545826Y-103004262D02*
X153478482Y-103071605D01*
X153478482Y-103071605D02*
X153343795Y-103138949D01*
X153343795Y-103138949D02*
X152535673Y-103138949D01*
X152535673Y-103138949D02*
X152973406Y-103576681D01*
X144861960Y-97040472D02*
X144626258Y-97276174D01*
X144996647Y-97646563D02*
X144289540Y-96939456D01*
X144289540Y-96939456D02*
X144626258Y-96602739D01*
X145468052Y-96434380D02*
X145602739Y-96367036D01*
X145602739Y-96367036D02*
X145670082Y-96367036D01*
X145670082Y-96367036D02*
X145771098Y-96400708D01*
X145771098Y-96400708D02*
X145872113Y-96501723D01*
X145872113Y-96501723D02*
X145905785Y-96602739D01*
X145905785Y-96602739D02*
X145905785Y-96670082D01*
X145905785Y-96670082D02*
X145872113Y-96771097D01*
X145872113Y-96771097D02*
X145602739Y-97040471D01*
X145602739Y-97040471D02*
X144895632Y-96333365D01*
X144895632Y-96333365D02*
X145131334Y-96097662D01*
X145131334Y-96097662D02*
X145232350Y-96063991D01*
X145232350Y-96063991D02*
X145299693Y-96063991D01*
X145299693Y-96063991D02*
X145400708Y-96097662D01*
X145400708Y-96097662D02*
X145468052Y-96165006D01*
X145468052Y-96165006D02*
X145501724Y-96266021D01*
X145501724Y-96266021D02*
X145501724Y-96333365D01*
X145501724Y-96333365D02*
X145468052Y-96434380D01*
X145468052Y-96434380D02*
X145232350Y-96670082D01*
X146680235Y-95962975D02*
X146276174Y-96367036D01*
X146478204Y-96165006D02*
X145771098Y-95457899D01*
X145771098Y-95457899D02*
X145804769Y-95626258D01*
X145804769Y-95626258D02*
X145804769Y-95760945D01*
X145804769Y-95760945D02*
X145771098Y-95861960D01*
X170066666Y-123931009D02*
X169733333Y-123931009D01*
X169733333Y-124454819D02*
X169733333Y-123454819D01*
X169733333Y-123454819D02*
X170209523Y-123454819D01*
X171114285Y-124454819D02*
X170542857Y-124454819D01*
X170828571Y-124454819D02*
X170828571Y-123454819D01*
X170828571Y-123454819D02*
X170733333Y-123597676D01*
X170733333Y-123597676D02*
X170638095Y-123692914D01*
X170638095Y-123692914D02*
X170542857Y-123740533D01*
X137022632Y-102871109D02*
X137022632Y-102938453D01*
X137022632Y-102938453D02*
X136955288Y-103073140D01*
X136955288Y-103073140D02*
X136887945Y-103140483D01*
X136887945Y-103140483D02*
X136753258Y-103207827D01*
X136753258Y-103207827D02*
X136618571Y-103207827D01*
X136618571Y-103207827D02*
X136517556Y-103174155D01*
X136517556Y-103174155D02*
X136349197Y-103073140D01*
X136349197Y-103073140D02*
X136248182Y-102972125D01*
X136248182Y-102972125D02*
X136147166Y-102803766D01*
X136147166Y-102803766D02*
X136113495Y-102702751D01*
X136113495Y-102702751D02*
X136113495Y-102568064D01*
X136113495Y-102568064D02*
X136180838Y-102433377D01*
X136180838Y-102433377D02*
X136248182Y-102366033D01*
X136248182Y-102366033D02*
X136382869Y-102298690D01*
X136382869Y-102298690D02*
X136450212Y-102298690D01*
X137763410Y-102265018D02*
X137359349Y-102669079D01*
X137561380Y-102467048D02*
X136854273Y-101759942D01*
X136854273Y-101759942D02*
X136887945Y-101928300D01*
X136887945Y-101928300D02*
X136887945Y-102062987D01*
X136887945Y-102062987D02*
X136854273Y-102164003D01*
X137292006Y-101322209D02*
X137729739Y-100884476D01*
X137729739Y-100884476D02*
X137763411Y-101389552D01*
X137763411Y-101389552D02*
X137864426Y-101288537D01*
X137864426Y-101288537D02*
X137965441Y-101254865D01*
X137965441Y-101254865D02*
X138032785Y-101254865D01*
X138032785Y-101254865D02*
X138133800Y-101288537D01*
X138133800Y-101288537D02*
X138302159Y-101456896D01*
X138302159Y-101456896D02*
X138335830Y-101557911D01*
X138335830Y-101557911D02*
X138335830Y-101625254D01*
X138335830Y-101625254D02*
X138302159Y-101726270D01*
X138302159Y-101726270D02*
X138100128Y-101928300D01*
X138100128Y-101928300D02*
X137999113Y-101961972D01*
X137999113Y-101961972D02*
X137931769Y-101961972D01*
X171583333Y-98854820D02*
X171250000Y-98378629D01*
X171011905Y-98854820D02*
X171011905Y-97854820D01*
X171011905Y-97854820D02*
X171392857Y-97854820D01*
X171392857Y-97854820D02*
X171488095Y-97902439D01*
X171488095Y-97902439D02*
X171535714Y-97950058D01*
X171535714Y-97950058D02*
X171583333Y-98045296D01*
X171583333Y-98045296D02*
X171583333Y-98188153D01*
X171583333Y-98188153D02*
X171535714Y-98283391D01*
X171535714Y-98283391D02*
X171488095Y-98331010D01*
X171488095Y-98331010D02*
X171392857Y-98378629D01*
X171392857Y-98378629D02*
X171011905Y-98378629D01*
X172440476Y-97854820D02*
X172250000Y-97854820D01*
X172250000Y-97854820D02*
X172154762Y-97902439D01*
X172154762Y-97902439D02*
X172107143Y-97950058D01*
X172107143Y-97950058D02*
X172011905Y-98092915D01*
X172011905Y-98092915D02*
X171964286Y-98283391D01*
X171964286Y-98283391D02*
X171964286Y-98664343D01*
X171964286Y-98664343D02*
X172011905Y-98759581D01*
X172011905Y-98759581D02*
X172059524Y-98807201D01*
X172059524Y-98807201D02*
X172154762Y-98854820D01*
X172154762Y-98854820D02*
X172345238Y-98854820D01*
X172345238Y-98854820D02*
X172440476Y-98807201D01*
X172440476Y-98807201D02*
X172488095Y-98759581D01*
X172488095Y-98759581D02*
X172535714Y-98664343D01*
X172535714Y-98664343D02*
X172535714Y-98426248D01*
X172535714Y-98426248D02*
X172488095Y-98331010D01*
X172488095Y-98331010D02*
X172440476Y-98283391D01*
X172440476Y-98283391D02*
X172345238Y-98235772D01*
X172345238Y-98235772D02*
X172154762Y-98235772D01*
X172154762Y-98235772D02*
X172059524Y-98283391D01*
X172059524Y-98283391D02*
X172011905Y-98331010D01*
X172011905Y-98331010D02*
X171964286Y-98426248D01*
X150083333Y-129454819D02*
X149750000Y-128978628D01*
X149511905Y-129454819D02*
X149511905Y-128454819D01*
X149511905Y-128454819D02*
X149892857Y-128454819D01*
X149892857Y-128454819D02*
X149988095Y-128502438D01*
X149988095Y-128502438D02*
X150035714Y-128550057D01*
X150035714Y-128550057D02*
X150083333Y-128645295D01*
X150083333Y-128645295D02*
X150083333Y-128788152D01*
X150083333Y-128788152D02*
X150035714Y-128883390D01*
X150035714Y-128883390D02*
X149988095Y-128931009D01*
X149988095Y-128931009D02*
X149892857Y-128978628D01*
X149892857Y-128978628D02*
X149511905Y-128978628D01*
X150988095Y-128454819D02*
X150511905Y-128454819D01*
X150511905Y-128454819D02*
X150464286Y-128931009D01*
X150464286Y-128931009D02*
X150511905Y-128883390D01*
X150511905Y-128883390D02*
X150607143Y-128835771D01*
X150607143Y-128835771D02*
X150845238Y-128835771D01*
X150845238Y-128835771D02*
X150940476Y-128883390D01*
X150940476Y-128883390D02*
X150988095Y-128931009D01*
X150988095Y-128931009D02*
X151035714Y-129026247D01*
X151035714Y-129026247D02*
X151035714Y-129264342D01*
X151035714Y-129264342D02*
X150988095Y-129359580D01*
X150988095Y-129359580D02*
X150940476Y-129407200D01*
X150940476Y-129407200D02*
X150845238Y-129454819D01*
X150845238Y-129454819D02*
X150607143Y-129454819D01*
X150607143Y-129454819D02*
X150511905Y-129407200D01*
X150511905Y-129407200D02*
X150464286Y-129359580D01*
X165466666Y-128254819D02*
X165466666Y-128969104D01*
X165466666Y-128969104D02*
X165419047Y-129111961D01*
X165419047Y-129111961D02*
X165323809Y-129207200D01*
X165323809Y-129207200D02*
X165180952Y-129254819D01*
X165180952Y-129254819D02*
X165085714Y-129254819D01*
X166466666Y-129254819D02*
X165895238Y-129254819D01*
X166180952Y-129254819D02*
X166180952Y-128254819D01*
X166180952Y-128254819D02*
X166085714Y-128397676D01*
X166085714Y-128397676D02*
X165990476Y-128492914D01*
X165990476Y-128492914D02*
X165895238Y-128540533D01*
X158386411Y-104372112D02*
X158386411Y-104439456D01*
X158386411Y-104439456D02*
X158319067Y-104574143D01*
X158319067Y-104574143D02*
X158251724Y-104641486D01*
X158251724Y-104641486D02*
X158117037Y-104708830D01*
X158117037Y-104708830D02*
X157982350Y-104708830D01*
X157982350Y-104708830D02*
X157881335Y-104675158D01*
X157881335Y-104675158D02*
X157712976Y-104574143D01*
X157712976Y-104574143D02*
X157611961Y-104473128D01*
X157611961Y-104473128D02*
X157510945Y-104304769D01*
X157510945Y-104304769D02*
X157477274Y-104203754D01*
X157477274Y-104203754D02*
X157477274Y-104069067D01*
X157477274Y-104069067D02*
X157544617Y-103934380D01*
X157544617Y-103934380D02*
X157611961Y-103867036D01*
X157611961Y-103867036D02*
X157746648Y-103799693D01*
X157746648Y-103799693D02*
X157813991Y-103799693D01*
X157982350Y-103496647D02*
X158420083Y-103058914D01*
X158420083Y-103058914D02*
X158453754Y-103563990D01*
X158453754Y-103563990D02*
X158554770Y-103462975D01*
X158554770Y-103462975D02*
X158655785Y-103429303D01*
X158655785Y-103429303D02*
X158723128Y-103429303D01*
X158723128Y-103429303D02*
X158824144Y-103462975D01*
X158824144Y-103462975D02*
X158992502Y-103631334D01*
X158992502Y-103631334D02*
X159026174Y-103732349D01*
X159026174Y-103732349D02*
X159026174Y-103799693D01*
X159026174Y-103799693D02*
X158992502Y-103900708D01*
X158992502Y-103900708D02*
X158790472Y-104102738D01*
X158790472Y-104102738D02*
X158689457Y-104136410D01*
X158689457Y-104136410D02*
X158622113Y-104136410D01*
X148843340Y-109610176D02*
X149415760Y-110182596D01*
X149415760Y-110182596D02*
X149516775Y-110216268D01*
X149516775Y-110216268D02*
X149584119Y-110216268D01*
X149584119Y-110216268D02*
X149685134Y-110182596D01*
X149685134Y-110182596D02*
X149819821Y-110047909D01*
X149819821Y-110047909D02*
X149853493Y-109946894D01*
X149853493Y-109946894D02*
X149853493Y-109879550D01*
X149853493Y-109879550D02*
X149819821Y-109778535D01*
X149819821Y-109778535D02*
X149247401Y-109206115D01*
X149516775Y-108936741D02*
X149954508Y-108499009D01*
X149954508Y-108499009D02*
X149988180Y-109004085D01*
X149988180Y-109004085D02*
X150089195Y-108903070D01*
X150089195Y-108903070D02*
X150190210Y-108869398D01*
X150190210Y-108869398D02*
X150257554Y-108869398D01*
X150257554Y-108869398D02*
X150358569Y-108903070D01*
X150358569Y-108903070D02*
X150526928Y-109071428D01*
X150526928Y-109071428D02*
X150560600Y-109172444D01*
X150560600Y-109172444D02*
X150560600Y-109239787D01*
X150560600Y-109239787D02*
X150526928Y-109340802D01*
X150526928Y-109340802D02*
X150324897Y-109542833D01*
X150324897Y-109542833D02*
X150223882Y-109576505D01*
X150223882Y-109576505D02*
X150156539Y-109576505D01*
X160166666Y-104004819D02*
X160166666Y-104719104D01*
X160166666Y-104719104D02*
X160119047Y-104861961D01*
X160119047Y-104861961D02*
X160023809Y-104957200D01*
X160023809Y-104957200D02*
X159880952Y-105004819D01*
X159880952Y-105004819D02*
X159785714Y-105004819D01*
X160547619Y-104004819D02*
X161166666Y-104004819D01*
X161166666Y-104004819D02*
X160833333Y-104385771D01*
X160833333Y-104385771D02*
X160976190Y-104385771D01*
X160976190Y-104385771D02*
X161071428Y-104433390D01*
X161071428Y-104433390D02*
X161119047Y-104481009D01*
X161119047Y-104481009D02*
X161166666Y-104576247D01*
X161166666Y-104576247D02*
X161166666Y-104814342D01*
X161166666Y-104814342D02*
X161119047Y-104909580D01*
X161119047Y-104909580D02*
X161071428Y-104957200D01*
X161071428Y-104957200D02*
X160976190Y-105004819D01*
X160976190Y-105004819D02*
X160690476Y-105004819D01*
X160690476Y-105004819D02*
X160595238Y-104957200D01*
X160595238Y-104957200D02*
X160547619Y-104909580D01*
X165572080Y-123129166D02*
X165619700Y-123176785D01*
X165619700Y-123176785D02*
X165667319Y-123319642D01*
X165667319Y-123319642D02*
X165667319Y-123414880D01*
X165667319Y-123414880D02*
X165619700Y-123557737D01*
X165619700Y-123557737D02*
X165524461Y-123652975D01*
X165524461Y-123652975D02*
X165429223Y-123700594D01*
X165429223Y-123700594D02*
X165238747Y-123748213D01*
X165238747Y-123748213D02*
X165095890Y-123748213D01*
X165095890Y-123748213D02*
X164905414Y-123700594D01*
X164905414Y-123700594D02*
X164810176Y-123652975D01*
X164810176Y-123652975D02*
X164714938Y-123557737D01*
X164714938Y-123557737D02*
X164667319Y-123414880D01*
X164667319Y-123414880D02*
X164667319Y-123319642D01*
X164667319Y-123319642D02*
X164714938Y-123176785D01*
X164714938Y-123176785D02*
X164762557Y-123129166D01*
X165667319Y-122176785D02*
X165667319Y-122748213D01*
X165667319Y-122462499D02*
X164667319Y-122462499D01*
X164667319Y-122462499D02*
X164810176Y-122557737D01*
X164810176Y-122557737D02*
X164905414Y-122652975D01*
X164905414Y-122652975D02*
X164953033Y-122748213D01*
X172157142Y-116759580D02*
X172109523Y-116807200D01*
X172109523Y-116807200D02*
X171966666Y-116854819D01*
X171966666Y-116854819D02*
X171871428Y-116854819D01*
X171871428Y-116854819D02*
X171728571Y-116807200D01*
X171728571Y-116807200D02*
X171633333Y-116711961D01*
X171633333Y-116711961D02*
X171585714Y-116616723D01*
X171585714Y-116616723D02*
X171538095Y-116426247D01*
X171538095Y-116426247D02*
X171538095Y-116283390D01*
X171538095Y-116283390D02*
X171585714Y-116092914D01*
X171585714Y-116092914D02*
X171633333Y-115997676D01*
X171633333Y-115997676D02*
X171728571Y-115902438D01*
X171728571Y-115902438D02*
X171871428Y-115854819D01*
X171871428Y-115854819D02*
X171966666Y-115854819D01*
X171966666Y-115854819D02*
X172109523Y-115902438D01*
X172109523Y-115902438D02*
X172157142Y-115950057D01*
X173109523Y-116854819D02*
X172538095Y-116854819D01*
X172823809Y-116854819D02*
X172823809Y-115854819D01*
X172823809Y-115854819D02*
X172728571Y-115997676D01*
X172728571Y-115997676D02*
X172633333Y-116092914D01*
X172633333Y-116092914D02*
X172538095Y-116140533D01*
X173442857Y-115854819D02*
X174109523Y-115854819D01*
X174109523Y-115854819D02*
X173680952Y-116854819D01*
X173833333Y-124054819D02*
X173500000Y-123578628D01*
X173261905Y-124054819D02*
X173261905Y-123054819D01*
X173261905Y-123054819D02*
X173642857Y-123054819D01*
X173642857Y-123054819D02*
X173738095Y-123102438D01*
X173738095Y-123102438D02*
X173785714Y-123150057D01*
X173785714Y-123150057D02*
X173833333Y-123245295D01*
X173833333Y-123245295D02*
X173833333Y-123388152D01*
X173833333Y-123388152D02*
X173785714Y-123483390D01*
X173785714Y-123483390D02*
X173738095Y-123531009D01*
X173738095Y-123531009D02*
X173642857Y-123578628D01*
X173642857Y-123578628D02*
X173261905Y-123578628D01*
X174785714Y-124054819D02*
X174214286Y-124054819D01*
X174500000Y-124054819D02*
X174500000Y-123054819D01*
X174500000Y-123054819D02*
X174404762Y-123197676D01*
X174404762Y-123197676D02*
X174309524Y-123292914D01*
X174309524Y-123292914D02*
X174214286Y-123340533D01*
X180607142Y-103289579D02*
X180559523Y-103337199D01*
X180559523Y-103337199D02*
X180416666Y-103384818D01*
X180416666Y-103384818D02*
X180321428Y-103384818D01*
X180321428Y-103384818D02*
X180178571Y-103337199D01*
X180178571Y-103337199D02*
X180083333Y-103241960D01*
X180083333Y-103241960D02*
X180035714Y-103146722D01*
X180035714Y-103146722D02*
X179988095Y-102956246D01*
X179988095Y-102956246D02*
X179988095Y-102813389D01*
X179988095Y-102813389D02*
X180035714Y-102622913D01*
X180035714Y-102622913D02*
X180083333Y-102527675D01*
X180083333Y-102527675D02*
X180178571Y-102432437D01*
X180178571Y-102432437D02*
X180321428Y-102384818D01*
X180321428Y-102384818D02*
X180416666Y-102384818D01*
X180416666Y-102384818D02*
X180559523Y-102432437D01*
X180559523Y-102432437D02*
X180607142Y-102480056D01*
X181559523Y-103384818D02*
X180988095Y-103384818D01*
X181273809Y-103384818D02*
X181273809Y-102384818D01*
X181273809Y-102384818D02*
X181178571Y-102527675D01*
X181178571Y-102527675D02*
X181083333Y-102622913D01*
X181083333Y-102622913D02*
X180988095Y-102670532D01*
X181940476Y-102480056D02*
X181988095Y-102432437D01*
X181988095Y-102432437D02*
X182083333Y-102384818D01*
X182083333Y-102384818D02*
X182321428Y-102384818D01*
X182321428Y-102384818D02*
X182416666Y-102432437D01*
X182416666Y-102432437D02*
X182464285Y-102480056D01*
X182464285Y-102480056D02*
X182511904Y-102575294D01*
X182511904Y-102575294D02*
X182511904Y-102670532D01*
X182511904Y-102670532D02*
X182464285Y-102813389D01*
X182464285Y-102813389D02*
X181892857Y-103384818D01*
X181892857Y-103384818D02*
X182511904Y-103384818D01*
X144041169Y-92049693D02*
X143973825Y-92049693D01*
X143973825Y-92049693D02*
X143839138Y-91982349D01*
X143839138Y-91982349D02*
X143771795Y-91915006D01*
X143771795Y-91915006D02*
X143704451Y-91780319D01*
X143704451Y-91780319D02*
X143704451Y-91645632D01*
X143704451Y-91645632D02*
X143738123Y-91544617D01*
X143738123Y-91544617D02*
X143839138Y-91376258D01*
X143839138Y-91376258D02*
X143940153Y-91275243D01*
X143940153Y-91275243D02*
X144108512Y-91174227D01*
X144108512Y-91174227D02*
X144209527Y-91140556D01*
X144209527Y-91140556D02*
X144344214Y-91140556D01*
X144344214Y-91140556D02*
X144478901Y-91207899D01*
X144478901Y-91207899D02*
X144546245Y-91275243D01*
X144546245Y-91275243D02*
X144613588Y-91409930D01*
X144613588Y-91409930D02*
X144613588Y-91477273D01*
X144647260Y-92790471D02*
X144243199Y-92386410D01*
X144445230Y-92588441D02*
X145152336Y-91881334D01*
X145152336Y-91881334D02*
X144983978Y-91915006D01*
X144983978Y-91915006D02*
X144849291Y-91915006D01*
X144849291Y-91915006D02*
X144748275Y-91881334D01*
X145792100Y-92521098D02*
X145859443Y-92588441D01*
X145859443Y-92588441D02*
X145893115Y-92689456D01*
X145893115Y-92689456D02*
X145893115Y-92756800D01*
X145893115Y-92756800D02*
X145859443Y-92857815D01*
X145859443Y-92857815D02*
X145758428Y-93026174D01*
X145758428Y-93026174D02*
X145590069Y-93194533D01*
X145590069Y-93194533D02*
X145421711Y-93295548D01*
X145421711Y-93295548D02*
X145320695Y-93329220D01*
X145320695Y-93329220D02*
X145253352Y-93329220D01*
X145253352Y-93329220D02*
X145152337Y-93295548D01*
X145152337Y-93295548D02*
X145084993Y-93228204D01*
X145084993Y-93228204D02*
X145051321Y-93127189D01*
X145051321Y-93127189D02*
X145051321Y-93059846D01*
X145051321Y-93059846D02*
X145084993Y-92958830D01*
X145084993Y-92958830D02*
X145186008Y-92790472D01*
X145186008Y-92790472D02*
X145354367Y-92622113D01*
X145354367Y-92622113D02*
X145522726Y-92521098D01*
X145522726Y-92521098D02*
X145623741Y-92487426D01*
X145623741Y-92487426D02*
X145691085Y-92487426D01*
X145691085Y-92487426D02*
X145792100Y-92521098D01*
X166559580Y-115392857D02*
X166607200Y-115440476D01*
X166607200Y-115440476D02*
X166654819Y-115583333D01*
X166654819Y-115583333D02*
X166654819Y-115678571D01*
X166654819Y-115678571D02*
X166607200Y-115821428D01*
X166607200Y-115821428D02*
X166511961Y-115916666D01*
X166511961Y-115916666D02*
X166416723Y-115964285D01*
X166416723Y-115964285D02*
X166226247Y-116011904D01*
X166226247Y-116011904D02*
X166083390Y-116011904D01*
X166083390Y-116011904D02*
X165892914Y-115964285D01*
X165892914Y-115964285D02*
X165797676Y-115916666D01*
X165797676Y-115916666D02*
X165702438Y-115821428D01*
X165702438Y-115821428D02*
X165654819Y-115678571D01*
X165654819Y-115678571D02*
X165654819Y-115583333D01*
X165654819Y-115583333D02*
X165702438Y-115440476D01*
X165702438Y-115440476D02*
X165750057Y-115392857D01*
X166654819Y-114440476D02*
X166654819Y-115011904D01*
X166654819Y-114726190D02*
X165654819Y-114726190D01*
X165654819Y-114726190D02*
X165797676Y-114821428D01*
X165797676Y-114821428D02*
X165892914Y-114916666D01*
X165892914Y-114916666D02*
X165940533Y-115011904D01*
X166083390Y-113869047D02*
X166035771Y-113964285D01*
X166035771Y-113964285D02*
X165988152Y-114011904D01*
X165988152Y-114011904D02*
X165892914Y-114059523D01*
X165892914Y-114059523D02*
X165845295Y-114059523D01*
X165845295Y-114059523D02*
X165750057Y-114011904D01*
X165750057Y-114011904D02*
X165702438Y-113964285D01*
X165702438Y-113964285D02*
X165654819Y-113869047D01*
X165654819Y-113869047D02*
X165654819Y-113678571D01*
X165654819Y-113678571D02*
X165702438Y-113583333D01*
X165702438Y-113583333D02*
X165750057Y-113535714D01*
X165750057Y-113535714D02*
X165845295Y-113488095D01*
X165845295Y-113488095D02*
X165892914Y-113488095D01*
X165892914Y-113488095D02*
X165988152Y-113535714D01*
X165988152Y-113535714D02*
X166035771Y-113583333D01*
X166035771Y-113583333D02*
X166083390Y-113678571D01*
X166083390Y-113678571D02*
X166083390Y-113869047D01*
X166083390Y-113869047D02*
X166131009Y-113964285D01*
X166131009Y-113964285D02*
X166178628Y-114011904D01*
X166178628Y-114011904D02*
X166273866Y-114059523D01*
X166273866Y-114059523D02*
X166464342Y-114059523D01*
X166464342Y-114059523D02*
X166559580Y-114011904D01*
X166559580Y-114011904D02*
X166607200Y-113964285D01*
X166607200Y-113964285D02*
X166654819Y-113869047D01*
X166654819Y-113869047D02*
X166654819Y-113678571D01*
X166654819Y-113678571D02*
X166607200Y-113583333D01*
X166607200Y-113583333D02*
X166559580Y-113535714D01*
X166559580Y-113535714D02*
X166464342Y-113488095D01*
X166464342Y-113488095D02*
X166273866Y-113488095D01*
X166273866Y-113488095D02*
X166178628Y-113535714D01*
X166178628Y-113535714D02*
X166131009Y-113583333D01*
X166131009Y-113583333D02*
X166083390Y-113678571D01*
X175959580Y-113042857D02*
X176007200Y-113090476D01*
X176007200Y-113090476D02*
X176054819Y-113233333D01*
X176054819Y-113233333D02*
X176054819Y-113328571D01*
X176054819Y-113328571D02*
X176007200Y-113471428D01*
X176007200Y-113471428D02*
X175911961Y-113566666D01*
X175911961Y-113566666D02*
X175816723Y-113614285D01*
X175816723Y-113614285D02*
X175626247Y-113661904D01*
X175626247Y-113661904D02*
X175483390Y-113661904D01*
X175483390Y-113661904D02*
X175292914Y-113614285D01*
X175292914Y-113614285D02*
X175197676Y-113566666D01*
X175197676Y-113566666D02*
X175102438Y-113471428D01*
X175102438Y-113471428D02*
X175054819Y-113328571D01*
X175054819Y-113328571D02*
X175054819Y-113233333D01*
X175054819Y-113233333D02*
X175102438Y-113090476D01*
X175102438Y-113090476D02*
X175150057Y-113042857D01*
X176054819Y-112090476D02*
X176054819Y-112661904D01*
X176054819Y-112376190D02*
X175054819Y-112376190D01*
X175054819Y-112376190D02*
X175197676Y-112471428D01*
X175197676Y-112471428D02*
X175292914Y-112566666D01*
X175292914Y-112566666D02*
X175340533Y-112661904D01*
X175054819Y-111233333D02*
X175054819Y-111423809D01*
X175054819Y-111423809D02*
X175102438Y-111519047D01*
X175102438Y-111519047D02*
X175150057Y-111566666D01*
X175150057Y-111566666D02*
X175292914Y-111661904D01*
X175292914Y-111661904D02*
X175483390Y-111709523D01*
X175483390Y-111709523D02*
X175864342Y-111709523D01*
X175864342Y-111709523D02*
X175959580Y-111661904D01*
X175959580Y-111661904D02*
X176007200Y-111614285D01*
X176007200Y-111614285D02*
X176054819Y-111519047D01*
X176054819Y-111519047D02*
X176054819Y-111328571D01*
X176054819Y-111328571D02*
X176007200Y-111233333D01*
X176007200Y-111233333D02*
X175959580Y-111185714D01*
X175959580Y-111185714D02*
X175864342Y-111138095D01*
X175864342Y-111138095D02*
X175626247Y-111138095D01*
X175626247Y-111138095D02*
X175531009Y-111185714D01*
X175531009Y-111185714D02*
X175483390Y-111233333D01*
X175483390Y-111233333D02*
X175435771Y-111328571D01*
X175435771Y-111328571D02*
X175435771Y-111519047D01*
X175435771Y-111519047D02*
X175483390Y-111614285D01*
X175483390Y-111614285D02*
X175531009Y-111661904D01*
X175531009Y-111661904D02*
X175626247Y-111709523D01*
X140549693Y-92208830D02*
X140549693Y-92276174D01*
X140549693Y-92276174D02*
X140482349Y-92410861D01*
X140482349Y-92410861D02*
X140415006Y-92478204D01*
X140415006Y-92478204D02*
X140280319Y-92545548D01*
X140280319Y-92545548D02*
X140145632Y-92545548D01*
X140145632Y-92545548D02*
X140044617Y-92511876D01*
X140044617Y-92511876D02*
X139876258Y-92410861D01*
X139876258Y-92410861D02*
X139775243Y-92309846D01*
X139775243Y-92309846D02*
X139674227Y-92141487D01*
X139674227Y-92141487D02*
X139640556Y-92040472D01*
X139640556Y-92040472D02*
X139640556Y-91905785D01*
X139640556Y-91905785D02*
X139707899Y-91771098D01*
X139707899Y-91771098D02*
X139775243Y-91703754D01*
X139775243Y-91703754D02*
X139909930Y-91636411D01*
X139909930Y-91636411D02*
X139977273Y-91636411D01*
X141290471Y-91602739D02*
X140886410Y-92006800D01*
X141088441Y-91804769D02*
X140381334Y-91097663D01*
X140381334Y-91097663D02*
X140415006Y-91266021D01*
X140415006Y-91266021D02*
X140415006Y-91400708D01*
X140415006Y-91400708D02*
X140381334Y-91501724D01*
X141963907Y-90929304D02*
X141559846Y-91333365D01*
X141761876Y-91131334D02*
X141054769Y-90424227D01*
X141054769Y-90424227D02*
X141088441Y-90592586D01*
X141088441Y-90592586D02*
X141088441Y-90727273D01*
X141088441Y-90727273D02*
X141054769Y-90828288D01*
X148789018Y-92671166D02*
X148789018Y-92738510D01*
X148789018Y-92738510D02*
X148721674Y-92873197D01*
X148721674Y-92873197D02*
X148654331Y-92940540D01*
X148654331Y-92940540D02*
X148519644Y-93007884D01*
X148519644Y-93007884D02*
X148384957Y-93007884D01*
X148384957Y-93007884D02*
X148283942Y-92974212D01*
X148283942Y-92974212D02*
X148115583Y-92873197D01*
X148115583Y-92873197D02*
X148014568Y-92772182D01*
X148014568Y-92772182D02*
X147913552Y-92603823D01*
X147913552Y-92603823D02*
X147879881Y-92502808D01*
X147879881Y-92502808D02*
X147879881Y-92368121D01*
X147879881Y-92368121D02*
X147947224Y-92233434D01*
X147947224Y-92233434D02*
X148014568Y-92166090D01*
X148014568Y-92166090D02*
X148149255Y-92098747D01*
X148149255Y-92098747D02*
X148216598Y-92098747D01*
X148755346Y-91425312D02*
X148620659Y-91559999D01*
X148620659Y-91559999D02*
X148586987Y-91661014D01*
X148586987Y-91661014D02*
X148586987Y-91728357D01*
X148586987Y-91728357D02*
X148620659Y-91896716D01*
X148620659Y-91896716D02*
X148721674Y-92065075D01*
X148721674Y-92065075D02*
X148991048Y-92334449D01*
X148991048Y-92334449D02*
X149092064Y-92368121D01*
X149092064Y-92368121D02*
X149159407Y-92368121D01*
X149159407Y-92368121D02*
X149260422Y-92334449D01*
X149260422Y-92334449D02*
X149395109Y-92199762D01*
X149395109Y-92199762D02*
X149428781Y-92098747D01*
X149428781Y-92098747D02*
X149428781Y-92031403D01*
X149428781Y-92031403D02*
X149395109Y-91930388D01*
X149395109Y-91930388D02*
X149226751Y-91762029D01*
X149226751Y-91762029D02*
X149125735Y-91728357D01*
X149125735Y-91728357D02*
X149058392Y-91728357D01*
X149058392Y-91728357D02*
X148957377Y-91762029D01*
X148957377Y-91762029D02*
X148822690Y-91896716D01*
X148822690Y-91896716D02*
X148789018Y-91997731D01*
X148789018Y-91997731D02*
X148789018Y-92065075D01*
X148789018Y-92065075D02*
X148822690Y-92166090D01*
X158916666Y-128704819D02*
X158916666Y-129419104D01*
X158916666Y-129419104D02*
X158869047Y-129561961D01*
X158869047Y-129561961D02*
X158773809Y-129657200D01*
X158773809Y-129657200D02*
X158630952Y-129704819D01*
X158630952Y-129704819D02*
X158535714Y-129704819D01*
X159392857Y-129704819D02*
X159392857Y-128704819D01*
X159392857Y-128704819D02*
X159773809Y-128704819D01*
X159773809Y-128704819D02*
X159869047Y-128752438D01*
X159869047Y-128752438D02*
X159916666Y-128800057D01*
X159916666Y-128800057D02*
X159964285Y-128895295D01*
X159964285Y-128895295D02*
X159964285Y-129038152D01*
X159964285Y-129038152D02*
X159916666Y-129133390D01*
X159916666Y-129133390D02*
X159869047Y-129181009D01*
X159869047Y-129181009D02*
X159773809Y-129228628D01*
X159773809Y-129228628D02*
X159392857Y-129228628D01*
X160345238Y-128800057D02*
X160392857Y-128752438D01*
X160392857Y-128752438D02*
X160488095Y-128704819D01*
X160488095Y-128704819D02*
X160726190Y-128704819D01*
X160726190Y-128704819D02*
X160821428Y-128752438D01*
X160821428Y-128752438D02*
X160869047Y-128800057D01*
X160869047Y-128800057D02*
X160916666Y-128895295D01*
X160916666Y-128895295D02*
X160916666Y-128990533D01*
X160916666Y-128990533D02*
X160869047Y-129133390D01*
X160869047Y-129133390D02*
X160297619Y-129704819D01*
X160297619Y-129704819D02*
X160916666Y-129704819D01*
X152496618Y-97259700D02*
X152429274Y-97259700D01*
X152429274Y-97259700D02*
X152294587Y-97192356D01*
X152294587Y-97192356D02*
X152227244Y-97125013D01*
X152227244Y-97125013D02*
X152159900Y-96990326D01*
X152159900Y-96990326D02*
X152159900Y-96855639D01*
X152159900Y-96855639D02*
X152193572Y-96754624D01*
X152193572Y-96754624D02*
X152294587Y-96586265D01*
X152294587Y-96586265D02*
X152395602Y-96485250D01*
X152395602Y-96485250D02*
X152563961Y-96384234D01*
X152563961Y-96384234D02*
X152664976Y-96350563D01*
X152664976Y-96350563D02*
X152799663Y-96350563D01*
X152799663Y-96350563D02*
X152934350Y-96417906D01*
X152934350Y-96417906D02*
X153001694Y-96485250D01*
X153001694Y-96485250D02*
X153069037Y-96619937D01*
X153069037Y-96619937D02*
X153069037Y-96687280D01*
X153338411Y-96956654D02*
X153405755Y-96956654D01*
X153405755Y-96956654D02*
X153506770Y-96990326D01*
X153506770Y-96990326D02*
X153675129Y-97158685D01*
X153675129Y-97158685D02*
X153708801Y-97259700D01*
X153708801Y-97259700D02*
X153708801Y-97327043D01*
X153708801Y-97327043D02*
X153675129Y-97428059D01*
X153675129Y-97428059D02*
X153607785Y-97495402D01*
X153607785Y-97495402D02*
X153473098Y-97562746D01*
X153473098Y-97562746D02*
X152664976Y-97562746D01*
X152664976Y-97562746D02*
X153102709Y-98000478D01*
X149023965Y-99074860D02*
X148687247Y-99411578D01*
X149158652Y-98468769D02*
X149023965Y-99074860D01*
X149023965Y-99074860D02*
X149630056Y-98940173D01*
X149529041Y-100253371D02*
X149124980Y-99849310D01*
X149327011Y-100051341D02*
X150034117Y-99344234D01*
X150034117Y-99344234D02*
X149865759Y-99377906D01*
X149865759Y-99377906D02*
X149731072Y-99377906D01*
X149731072Y-99377906D02*
X149630056Y-99344234D01*
X175054819Y-121161904D02*
X175864342Y-121161904D01*
X175864342Y-121161904D02*
X175959580Y-121114285D01*
X175959580Y-121114285D02*
X176007200Y-121066666D01*
X176007200Y-121066666D02*
X176054819Y-120971428D01*
X176054819Y-120971428D02*
X176054819Y-120780952D01*
X176054819Y-120780952D02*
X176007200Y-120685714D01*
X176007200Y-120685714D02*
X175959580Y-120638095D01*
X175959580Y-120638095D02*
X175864342Y-120590476D01*
X175864342Y-120590476D02*
X175054819Y-120590476D01*
X175150057Y-120161904D02*
X175102438Y-120114285D01*
X175102438Y-120114285D02*
X175054819Y-120019047D01*
X175054819Y-120019047D02*
X175054819Y-119780952D01*
X175054819Y-119780952D02*
X175102438Y-119685714D01*
X175102438Y-119685714D02*
X175150057Y-119638095D01*
X175150057Y-119638095D02*
X175245295Y-119590476D01*
X175245295Y-119590476D02*
X175340533Y-119590476D01*
X175340533Y-119590476D02*
X175483390Y-119638095D01*
X175483390Y-119638095D02*
X176054819Y-120209523D01*
X176054819Y-120209523D02*
X176054819Y-119590476D01*
X166454819Y-117166666D02*
X165978628Y-117499999D01*
X166454819Y-117738094D02*
X165454819Y-117738094D01*
X165454819Y-117738094D02*
X165454819Y-117357142D01*
X165454819Y-117357142D02*
X165502438Y-117261904D01*
X165502438Y-117261904D02*
X165550057Y-117214285D01*
X165550057Y-117214285D02*
X165645295Y-117166666D01*
X165645295Y-117166666D02*
X165788152Y-117166666D01*
X165788152Y-117166666D02*
X165883390Y-117214285D01*
X165883390Y-117214285D02*
X165931009Y-117261904D01*
X165931009Y-117261904D02*
X165978628Y-117357142D01*
X165978628Y-117357142D02*
X165978628Y-117738094D01*
X165883390Y-116595237D02*
X165835771Y-116690475D01*
X165835771Y-116690475D02*
X165788152Y-116738094D01*
X165788152Y-116738094D02*
X165692914Y-116785713D01*
X165692914Y-116785713D02*
X165645295Y-116785713D01*
X165645295Y-116785713D02*
X165550057Y-116738094D01*
X165550057Y-116738094D02*
X165502438Y-116690475D01*
X165502438Y-116690475D02*
X165454819Y-116595237D01*
X165454819Y-116595237D02*
X165454819Y-116404761D01*
X165454819Y-116404761D02*
X165502438Y-116309523D01*
X165502438Y-116309523D02*
X165550057Y-116261904D01*
X165550057Y-116261904D02*
X165645295Y-116214285D01*
X165645295Y-116214285D02*
X165692914Y-116214285D01*
X165692914Y-116214285D02*
X165788152Y-116261904D01*
X165788152Y-116261904D02*
X165835771Y-116309523D01*
X165835771Y-116309523D02*
X165883390Y-116404761D01*
X165883390Y-116404761D02*
X165883390Y-116595237D01*
X165883390Y-116595237D02*
X165931009Y-116690475D01*
X165931009Y-116690475D02*
X165978628Y-116738094D01*
X165978628Y-116738094D02*
X166073866Y-116785713D01*
X166073866Y-116785713D02*
X166264342Y-116785713D01*
X166264342Y-116785713D02*
X166359580Y-116738094D01*
X166359580Y-116738094D02*
X166407200Y-116690475D01*
X166407200Y-116690475D02*
X166454819Y-116595237D01*
X166454819Y-116595237D02*
X166454819Y-116404761D01*
X166454819Y-116404761D02*
X166407200Y-116309523D01*
X166407200Y-116309523D02*
X166359580Y-116261904D01*
X166359580Y-116261904D02*
X166264342Y-116214285D01*
X166264342Y-116214285D02*
X166073866Y-116214285D01*
X166073866Y-116214285D02*
X165978628Y-116261904D01*
X165978628Y-116261904D02*
X165931009Y-116309523D01*
X165931009Y-116309523D02*
X165883390Y-116404761D01*
X158439819Y-125077673D02*
X159154104Y-125077673D01*
X159154104Y-125077673D02*
X159296961Y-125125292D01*
X159296961Y-125125292D02*
X159392200Y-125220530D01*
X159392200Y-125220530D02*
X159439819Y-125363387D01*
X159439819Y-125363387D02*
X159439819Y-125458625D01*
X158439819Y-124696720D02*
X158439819Y-124030054D01*
X158439819Y-124030054D02*
X159439819Y-124458625D01*
X170438095Y-117054819D02*
X170438095Y-117864342D01*
X170438095Y-117864342D02*
X170485714Y-117959580D01*
X170485714Y-117959580D02*
X170533333Y-118007200D01*
X170533333Y-118007200D02*
X170628571Y-118054819D01*
X170628571Y-118054819D02*
X170819047Y-118054819D01*
X170819047Y-118054819D02*
X170914285Y-118007200D01*
X170914285Y-118007200D02*
X170961904Y-117959580D01*
X170961904Y-117959580D02*
X171009523Y-117864342D01*
X171009523Y-117864342D02*
X171009523Y-117054819D01*
X172009523Y-118054819D02*
X171438095Y-118054819D01*
X171723809Y-118054819D02*
X171723809Y-117054819D01*
X171723809Y-117054819D02*
X171628571Y-117197676D01*
X171628571Y-117197676D02*
X171533333Y-117292914D01*
X171533333Y-117292914D02*
X171438095Y-117340533D01*
X166667318Y-107261904D02*
X167476841Y-107261904D01*
X167476841Y-107261904D02*
X167572079Y-107214285D01*
X167572079Y-107214285D02*
X167619699Y-107166666D01*
X167619699Y-107166666D02*
X167667318Y-107071428D01*
X167667318Y-107071428D02*
X167667318Y-106880952D01*
X167667318Y-106880952D02*
X167619699Y-106785714D01*
X167619699Y-106785714D02*
X167572079Y-106738095D01*
X167572079Y-106738095D02*
X167476841Y-106690476D01*
X167476841Y-106690476D02*
X166667318Y-106690476D01*
X167000651Y-105785714D02*
X167667318Y-105785714D01*
X166619699Y-106023809D02*
X167333984Y-106261904D01*
X167333984Y-106261904D02*
X167333984Y-105642857D01*
X166559580Y-112442857D02*
X166607200Y-112490476D01*
X166607200Y-112490476D02*
X166654819Y-112633333D01*
X166654819Y-112633333D02*
X166654819Y-112728571D01*
X166654819Y-112728571D02*
X166607200Y-112871428D01*
X166607200Y-112871428D02*
X166511961Y-112966666D01*
X166511961Y-112966666D02*
X166416723Y-113014285D01*
X166416723Y-113014285D02*
X166226247Y-113061904D01*
X166226247Y-113061904D02*
X166083390Y-113061904D01*
X166083390Y-113061904D02*
X165892914Y-113014285D01*
X165892914Y-113014285D02*
X165797676Y-112966666D01*
X165797676Y-112966666D02*
X165702438Y-112871428D01*
X165702438Y-112871428D02*
X165654819Y-112728571D01*
X165654819Y-112728571D02*
X165654819Y-112633333D01*
X165654819Y-112633333D02*
X165702438Y-112490476D01*
X165702438Y-112490476D02*
X165750057Y-112442857D01*
X166654819Y-111490476D02*
X166654819Y-112061904D01*
X166654819Y-111776190D02*
X165654819Y-111776190D01*
X165654819Y-111776190D02*
X165797676Y-111871428D01*
X165797676Y-111871428D02*
X165892914Y-111966666D01*
X165892914Y-111966666D02*
X165940533Y-112061904D01*
X166654819Y-111014285D02*
X166654819Y-110823809D01*
X166654819Y-110823809D02*
X166607200Y-110728571D01*
X166607200Y-110728571D02*
X166559580Y-110680952D01*
X166559580Y-110680952D02*
X166416723Y-110585714D01*
X166416723Y-110585714D02*
X166226247Y-110538095D01*
X166226247Y-110538095D02*
X165845295Y-110538095D01*
X165845295Y-110538095D02*
X165750057Y-110585714D01*
X165750057Y-110585714D02*
X165702438Y-110633333D01*
X165702438Y-110633333D02*
X165654819Y-110728571D01*
X165654819Y-110728571D02*
X165654819Y-110919047D01*
X165654819Y-110919047D02*
X165702438Y-111014285D01*
X165702438Y-111014285D02*
X165750057Y-111061904D01*
X165750057Y-111061904D02*
X165845295Y-111109523D01*
X165845295Y-111109523D02*
X166083390Y-111109523D01*
X166083390Y-111109523D02*
X166178628Y-111061904D01*
X166178628Y-111061904D02*
X166226247Y-111014285D01*
X166226247Y-111014285D02*
X166273866Y-110919047D01*
X166273866Y-110919047D02*
X166273866Y-110728571D01*
X166273866Y-110728571D02*
X166226247Y-110633333D01*
X166226247Y-110633333D02*
X166178628Y-110585714D01*
X166178628Y-110585714D02*
X166083390Y-110538095D01*
X172024405Y-97204819D02*
X172024405Y-96204819D01*
X172024405Y-96204819D02*
X172262500Y-96204819D01*
X172262500Y-96204819D02*
X172405357Y-96252438D01*
X172405357Y-96252438D02*
X172500595Y-96347676D01*
X172500595Y-96347676D02*
X172548214Y-96442914D01*
X172548214Y-96442914D02*
X172595833Y-96633390D01*
X172595833Y-96633390D02*
X172595833Y-96776247D01*
X172595833Y-96776247D02*
X172548214Y-96966723D01*
X172548214Y-96966723D02*
X172500595Y-97061961D01*
X172500595Y-97061961D02*
X172405357Y-97157200D01*
X172405357Y-97157200D02*
X172262500Y-97204819D01*
X172262500Y-97204819D02*
X172024405Y-97204819D01*
X173548214Y-97204819D02*
X172976786Y-97204819D01*
X173262500Y-97204819D02*
X173262500Y-96204819D01*
X173262500Y-96204819D02*
X173167262Y-96347676D01*
X173167262Y-96347676D02*
X173072024Y-96442914D01*
X173072024Y-96442914D02*
X172976786Y-96490533D01*
X180104819Y-125666666D02*
X179628628Y-125999999D01*
X180104819Y-126238094D02*
X179104819Y-126238094D01*
X179104819Y-126238094D02*
X179104819Y-125857142D01*
X179104819Y-125857142D02*
X179152438Y-125761904D01*
X179152438Y-125761904D02*
X179200057Y-125714285D01*
X179200057Y-125714285D02*
X179295295Y-125666666D01*
X179295295Y-125666666D02*
X179438152Y-125666666D01*
X179438152Y-125666666D02*
X179533390Y-125714285D01*
X179533390Y-125714285D02*
X179581009Y-125761904D01*
X179581009Y-125761904D02*
X179628628Y-125857142D01*
X179628628Y-125857142D02*
X179628628Y-126238094D01*
X179200057Y-125285713D02*
X179152438Y-125238094D01*
X179152438Y-125238094D02*
X179104819Y-125142856D01*
X179104819Y-125142856D02*
X179104819Y-124904761D01*
X179104819Y-124904761D02*
X179152438Y-124809523D01*
X179152438Y-124809523D02*
X179200057Y-124761904D01*
X179200057Y-124761904D02*
X179295295Y-124714285D01*
X179295295Y-124714285D02*
X179390533Y-124714285D01*
X179390533Y-124714285D02*
X179533390Y-124761904D01*
X179533390Y-124761904D02*
X180104819Y-125333332D01*
X180104819Y-125333332D02*
X180104819Y-124714285D01*
X179166667Y-109107200D02*
X179309524Y-109154819D01*
X179309524Y-109154819D02*
X179547619Y-109154819D01*
X179547619Y-109154819D02*
X179642857Y-109107200D01*
X179642857Y-109107200D02*
X179690476Y-109059580D01*
X179690476Y-109059580D02*
X179738095Y-108964342D01*
X179738095Y-108964342D02*
X179738095Y-108869104D01*
X179738095Y-108869104D02*
X179690476Y-108773866D01*
X179690476Y-108773866D02*
X179642857Y-108726247D01*
X179642857Y-108726247D02*
X179547619Y-108678628D01*
X179547619Y-108678628D02*
X179357143Y-108631009D01*
X179357143Y-108631009D02*
X179261905Y-108583390D01*
X179261905Y-108583390D02*
X179214286Y-108535771D01*
X179214286Y-108535771D02*
X179166667Y-108440533D01*
X179166667Y-108440533D02*
X179166667Y-108345295D01*
X179166667Y-108345295D02*
X179214286Y-108250057D01*
X179214286Y-108250057D02*
X179261905Y-108202438D01*
X179261905Y-108202438D02*
X179357143Y-108154819D01*
X179357143Y-108154819D02*
X179595238Y-108154819D01*
X179595238Y-108154819D02*
X179738095Y-108202438D01*
X180071429Y-108154819D02*
X180309524Y-109154819D01*
X180309524Y-109154819D02*
X180500000Y-108440533D01*
X180500000Y-108440533D02*
X180690476Y-109154819D01*
X180690476Y-109154819D02*
X180928572Y-108154819D01*
X181214286Y-108154819D02*
X181833333Y-108154819D01*
X181833333Y-108154819D02*
X181500000Y-108535771D01*
X181500000Y-108535771D02*
X181642857Y-108535771D01*
X181642857Y-108535771D02*
X181738095Y-108583390D01*
X181738095Y-108583390D02*
X181785714Y-108631009D01*
X181785714Y-108631009D02*
X181833333Y-108726247D01*
X181833333Y-108726247D02*
X181833333Y-108964342D01*
X181833333Y-108964342D02*
X181785714Y-109059580D01*
X181785714Y-109059580D02*
X181738095Y-109107200D01*
X181738095Y-109107200D02*
X181642857Y-109154819D01*
X181642857Y-109154819D02*
X181357143Y-109154819D01*
X181357143Y-109154819D02*
X181261905Y-109107200D01*
X181261905Y-109107200D02*
X181214286Y-109059580D01*
X184331009Y-107557142D02*
X184378628Y-107414285D01*
X184378628Y-107414285D02*
X184426247Y-107366666D01*
X184426247Y-107366666D02*
X184521485Y-107319047D01*
X184521485Y-107319047D02*
X184664342Y-107319047D01*
X184664342Y-107319047D02*
X184759580Y-107366666D01*
X184759580Y-107366666D02*
X184807200Y-107414285D01*
X184807200Y-107414285D02*
X184854819Y-107509523D01*
X184854819Y-107509523D02*
X184854819Y-107890475D01*
X184854819Y-107890475D02*
X183854819Y-107890475D01*
X183854819Y-107890475D02*
X183854819Y-107557142D01*
X183854819Y-107557142D02*
X183902438Y-107461904D01*
X183902438Y-107461904D02*
X183950057Y-107414285D01*
X183950057Y-107414285D02*
X184045295Y-107366666D01*
X184045295Y-107366666D02*
X184140533Y-107366666D01*
X184140533Y-107366666D02*
X184235771Y-107414285D01*
X184235771Y-107414285D02*
X184283390Y-107461904D01*
X184283390Y-107461904D02*
X184331009Y-107557142D01*
X184331009Y-107557142D02*
X184331009Y-107890475D01*
X183854819Y-106699999D02*
X183854819Y-106509523D01*
X183854819Y-106509523D02*
X183902438Y-106414285D01*
X183902438Y-106414285D02*
X183997676Y-106319047D01*
X183997676Y-106319047D02*
X184188152Y-106271428D01*
X184188152Y-106271428D02*
X184521485Y-106271428D01*
X184521485Y-106271428D02*
X184711961Y-106319047D01*
X184711961Y-106319047D02*
X184807200Y-106414285D01*
X184807200Y-106414285D02*
X184854819Y-106509523D01*
X184854819Y-106509523D02*
X184854819Y-106699999D01*
X184854819Y-106699999D02*
X184807200Y-106795237D01*
X184807200Y-106795237D02*
X184711961Y-106890475D01*
X184711961Y-106890475D02*
X184521485Y-106938094D01*
X184521485Y-106938094D02*
X184188152Y-106938094D01*
X184188152Y-106938094D02*
X183997676Y-106890475D01*
X183997676Y-106890475D02*
X183902438Y-106795237D01*
X183902438Y-106795237D02*
X183854819Y-106699999D01*
X183854819Y-105652380D02*
X183854819Y-105461904D01*
X183854819Y-105461904D02*
X183902438Y-105366666D01*
X183902438Y-105366666D02*
X183997676Y-105271428D01*
X183997676Y-105271428D02*
X184188152Y-105223809D01*
X184188152Y-105223809D02*
X184521485Y-105223809D01*
X184521485Y-105223809D02*
X184711961Y-105271428D01*
X184711961Y-105271428D02*
X184807200Y-105366666D01*
X184807200Y-105366666D02*
X184854819Y-105461904D01*
X184854819Y-105461904D02*
X184854819Y-105652380D01*
X184854819Y-105652380D02*
X184807200Y-105747618D01*
X184807200Y-105747618D02*
X184711961Y-105842856D01*
X184711961Y-105842856D02*
X184521485Y-105890475D01*
X184521485Y-105890475D02*
X184188152Y-105890475D01*
X184188152Y-105890475D02*
X183997676Y-105842856D01*
X183997676Y-105842856D02*
X183902438Y-105747618D01*
X183902438Y-105747618D02*
X183854819Y-105652380D01*
X183854819Y-104938094D02*
X183854819Y-104366666D01*
X184854819Y-104652380D02*
X183854819Y-104652380D01*
X178916667Y-92607201D02*
X179059524Y-92654820D01*
X179059524Y-92654820D02*
X179297619Y-92654820D01*
X179297619Y-92654820D02*
X179392857Y-92607201D01*
X179392857Y-92607201D02*
X179440476Y-92559581D01*
X179440476Y-92559581D02*
X179488095Y-92464343D01*
X179488095Y-92464343D02*
X179488095Y-92369105D01*
X179488095Y-92369105D02*
X179440476Y-92273867D01*
X179440476Y-92273867D02*
X179392857Y-92226248D01*
X179392857Y-92226248D02*
X179297619Y-92178629D01*
X179297619Y-92178629D02*
X179107143Y-92131010D01*
X179107143Y-92131010D02*
X179011905Y-92083391D01*
X179011905Y-92083391D02*
X178964286Y-92035772D01*
X178964286Y-92035772D02*
X178916667Y-91940534D01*
X178916667Y-91940534D02*
X178916667Y-91845296D01*
X178916667Y-91845296D02*
X178964286Y-91750058D01*
X178964286Y-91750058D02*
X179011905Y-91702439D01*
X179011905Y-91702439D02*
X179107143Y-91654820D01*
X179107143Y-91654820D02*
X179345238Y-91654820D01*
X179345238Y-91654820D02*
X179488095Y-91702439D01*
X179821429Y-91654820D02*
X180059524Y-92654820D01*
X180059524Y-92654820D02*
X180250000Y-91940534D01*
X180250000Y-91940534D02*
X180440476Y-92654820D01*
X180440476Y-92654820D02*
X180678572Y-91654820D01*
X181011905Y-91750058D02*
X181059524Y-91702439D01*
X181059524Y-91702439D02*
X181154762Y-91654820D01*
X181154762Y-91654820D02*
X181392857Y-91654820D01*
X181392857Y-91654820D02*
X181488095Y-91702439D01*
X181488095Y-91702439D02*
X181535714Y-91750058D01*
X181535714Y-91750058D02*
X181583333Y-91845296D01*
X181583333Y-91845296D02*
X181583333Y-91940534D01*
X181583333Y-91940534D02*
X181535714Y-92083391D01*
X181535714Y-92083391D02*
X180964286Y-92654820D01*
X180964286Y-92654820D02*
X181583333Y-92654820D01*
X183654819Y-91038094D02*
X184464342Y-91038094D01*
X184464342Y-91038094D02*
X184559580Y-90990475D01*
X184559580Y-90990475D02*
X184607200Y-90942856D01*
X184607200Y-90942856D02*
X184654819Y-90847618D01*
X184654819Y-90847618D02*
X184654819Y-90657142D01*
X184654819Y-90657142D02*
X184607200Y-90561904D01*
X184607200Y-90561904D02*
X184559580Y-90514285D01*
X184559580Y-90514285D02*
X184464342Y-90466666D01*
X184464342Y-90466666D02*
X183654819Y-90466666D01*
X184607200Y-90038094D02*
X184654819Y-89895237D01*
X184654819Y-89895237D02*
X184654819Y-89657142D01*
X184654819Y-89657142D02*
X184607200Y-89561904D01*
X184607200Y-89561904D02*
X184559580Y-89514285D01*
X184559580Y-89514285D02*
X184464342Y-89466666D01*
X184464342Y-89466666D02*
X184369104Y-89466666D01*
X184369104Y-89466666D02*
X184273866Y-89514285D01*
X184273866Y-89514285D02*
X184226247Y-89561904D01*
X184226247Y-89561904D02*
X184178628Y-89657142D01*
X184178628Y-89657142D02*
X184131009Y-89847618D01*
X184131009Y-89847618D02*
X184083390Y-89942856D01*
X184083390Y-89942856D02*
X184035771Y-89990475D01*
X184035771Y-89990475D02*
X183940533Y-90038094D01*
X183940533Y-90038094D02*
X183845295Y-90038094D01*
X183845295Y-90038094D02*
X183750057Y-89990475D01*
X183750057Y-89990475D02*
X183702438Y-89942856D01*
X183702438Y-89942856D02*
X183654819Y-89847618D01*
X183654819Y-89847618D02*
X183654819Y-89609523D01*
X183654819Y-89609523D02*
X183702438Y-89466666D01*
X184654819Y-88514285D02*
X184654819Y-89085713D01*
X184654819Y-88799999D02*
X183654819Y-88799999D01*
X183654819Y-88799999D02*
X183797676Y-88895237D01*
X183797676Y-88895237D02*
X183892914Y-88990475D01*
X183892914Y-88990475D02*
X183940533Y-89085713D01*
X179916667Y-95957199D02*
X180059524Y-96004818D01*
X180059524Y-96004818D02*
X180297619Y-96004818D01*
X180297619Y-96004818D02*
X180392857Y-95957199D01*
X180392857Y-95957199D02*
X180440476Y-95909579D01*
X180440476Y-95909579D02*
X180488095Y-95814341D01*
X180488095Y-95814341D02*
X180488095Y-95719103D01*
X180488095Y-95719103D02*
X180440476Y-95623865D01*
X180440476Y-95623865D02*
X180392857Y-95576246D01*
X180392857Y-95576246D02*
X180297619Y-95528627D01*
X180297619Y-95528627D02*
X180107143Y-95481008D01*
X180107143Y-95481008D02*
X180011905Y-95433389D01*
X180011905Y-95433389D02*
X179964286Y-95385770D01*
X179964286Y-95385770D02*
X179916667Y-95290532D01*
X179916667Y-95290532D02*
X179916667Y-95195294D01*
X179916667Y-95195294D02*
X179964286Y-95100056D01*
X179964286Y-95100056D02*
X180011905Y-95052437D01*
X180011905Y-95052437D02*
X180107143Y-95004818D01*
X180107143Y-95004818D02*
X180345238Y-95004818D01*
X180345238Y-95004818D02*
X180488095Y-95052437D01*
X180821429Y-95004818D02*
X181059524Y-96004818D01*
X181059524Y-96004818D02*
X181250000Y-95290532D01*
X181250000Y-95290532D02*
X181440476Y-96004818D01*
X181440476Y-96004818D02*
X181678572Y-95004818D01*
X182583333Y-96004818D02*
X182011905Y-96004818D01*
X182297619Y-96004818D02*
X182297619Y-95004818D01*
X182297619Y-95004818D02*
X182202381Y-95147675D01*
X182202381Y-95147675D02*
X182107143Y-95242913D01*
X182107143Y-95242913D02*
X182011905Y-95290532D01*
X184654819Y-95147619D02*
X184178628Y-95480952D01*
X184654819Y-95719047D02*
X183654819Y-95719047D01*
X183654819Y-95719047D02*
X183654819Y-95338095D01*
X183654819Y-95338095D02*
X183702438Y-95242857D01*
X183702438Y-95242857D02*
X183750057Y-95195238D01*
X183750057Y-95195238D02*
X183845295Y-95147619D01*
X183845295Y-95147619D02*
X183988152Y-95147619D01*
X183988152Y-95147619D02*
X184083390Y-95195238D01*
X184083390Y-95195238D02*
X184131009Y-95242857D01*
X184131009Y-95242857D02*
X184178628Y-95338095D01*
X184178628Y-95338095D02*
X184178628Y-95719047D01*
X184607200Y-94766666D02*
X184654819Y-94623809D01*
X184654819Y-94623809D02*
X184654819Y-94385714D01*
X184654819Y-94385714D02*
X184607200Y-94290476D01*
X184607200Y-94290476D02*
X184559580Y-94242857D01*
X184559580Y-94242857D02*
X184464342Y-94195238D01*
X184464342Y-94195238D02*
X184369104Y-94195238D01*
X184369104Y-94195238D02*
X184273866Y-94242857D01*
X184273866Y-94242857D02*
X184226247Y-94290476D01*
X184226247Y-94290476D02*
X184178628Y-94385714D01*
X184178628Y-94385714D02*
X184131009Y-94576190D01*
X184131009Y-94576190D02*
X184083390Y-94671428D01*
X184083390Y-94671428D02*
X184035771Y-94719047D01*
X184035771Y-94719047D02*
X183940533Y-94766666D01*
X183940533Y-94766666D02*
X183845295Y-94766666D01*
X183845295Y-94766666D02*
X183750057Y-94719047D01*
X183750057Y-94719047D02*
X183702438Y-94671428D01*
X183702438Y-94671428D02*
X183654819Y-94576190D01*
X183654819Y-94576190D02*
X183654819Y-94338095D01*
X183654819Y-94338095D02*
X183702438Y-94195238D01*
X183654819Y-93909523D02*
X183654819Y-93338095D01*
X184654819Y-93623809D02*
X183654819Y-93623809D01*
X156604819Y-116333332D02*
X157319104Y-116333332D01*
X157319104Y-116333332D02*
X157461961Y-116380951D01*
X157461961Y-116380951D02*
X157557200Y-116476189D01*
X157557200Y-116476189D02*
X157604819Y-116619046D01*
X157604819Y-116619046D02*
X157604819Y-116714284D01*
X156938152Y-115428570D02*
X157604819Y-115428570D01*
X156557200Y-115666665D02*
X157271485Y-115904760D01*
X157271485Y-115904760D02*
X157271485Y-115285713D01*
X135604819Y-116333333D02*
X136319104Y-116333333D01*
X136319104Y-116333333D02*
X136461961Y-116380952D01*
X136461961Y-116380952D02*
X136557200Y-116476190D01*
X136557200Y-116476190D02*
X136604819Y-116619047D01*
X136604819Y-116619047D02*
X136604819Y-116714285D01*
X135700057Y-115904761D02*
X135652438Y-115857142D01*
X135652438Y-115857142D02*
X135604819Y-115761904D01*
X135604819Y-115761904D02*
X135604819Y-115523809D01*
X135604819Y-115523809D02*
X135652438Y-115428571D01*
X135652438Y-115428571D02*
X135700057Y-115380952D01*
X135700057Y-115380952D02*
X135795295Y-115333333D01*
X135795295Y-115333333D02*
X135890533Y-115333333D01*
X135890533Y-115333333D02*
X136033390Y-115380952D01*
X136033390Y-115380952D02*
X136604819Y-115952380D01*
X136604819Y-115952380D02*
X136604819Y-115333333D01*
X175938095Y-114056819D02*
X176509523Y-114056819D01*
X176223809Y-115056819D02*
X176223809Y-114056819D01*
X176842857Y-115056819D02*
X176842857Y-114056819D01*
X176842857Y-114056819D02*
X177223809Y-114056819D01*
X177223809Y-114056819D02*
X177319047Y-114104438D01*
X177319047Y-114104438D02*
X177366666Y-114152057D01*
X177366666Y-114152057D02*
X177414285Y-114247295D01*
X177414285Y-114247295D02*
X177414285Y-114390152D01*
X177414285Y-114390152D02*
X177366666Y-114485390D01*
X177366666Y-114485390D02*
X177319047Y-114533009D01*
X177319047Y-114533009D02*
X177223809Y-114580628D01*
X177223809Y-114580628D02*
X176842857Y-114580628D01*
X178366666Y-115056819D02*
X177795238Y-115056819D01*
X178080952Y-115056819D02*
X178080952Y-114056819D01*
X178080952Y-114056819D02*
X177985714Y-114199676D01*
X177985714Y-114199676D02*
X177890476Y-114294914D01*
X177890476Y-114294914D02*
X177795238Y-114342533D01*
X162738095Y-113306819D02*
X163309523Y-113306819D01*
X163023809Y-114306819D02*
X163023809Y-113306819D01*
X163642857Y-114306819D02*
X163642857Y-113306819D01*
X163642857Y-113306819D02*
X164023809Y-113306819D01*
X164023809Y-113306819D02*
X164119047Y-113354438D01*
X164119047Y-113354438D02*
X164166666Y-113402057D01*
X164166666Y-113402057D02*
X164214285Y-113497295D01*
X164214285Y-113497295D02*
X164214285Y-113640152D01*
X164214285Y-113640152D02*
X164166666Y-113735390D01*
X164166666Y-113735390D02*
X164119047Y-113783009D01*
X164119047Y-113783009D02*
X164023809Y-113830628D01*
X164023809Y-113830628D02*
X163642857Y-113830628D01*
X164595238Y-113402057D02*
X164642857Y-113354438D01*
X164642857Y-113354438D02*
X164738095Y-113306819D01*
X164738095Y-113306819D02*
X164976190Y-113306819D01*
X164976190Y-113306819D02*
X165071428Y-113354438D01*
X165071428Y-113354438D02*
X165119047Y-113402057D01*
X165119047Y-113402057D02*
X165166666Y-113497295D01*
X165166666Y-113497295D02*
X165166666Y-113592533D01*
X165166666Y-113592533D02*
X165119047Y-113735390D01*
X165119047Y-113735390D02*
X164547619Y-114306819D01*
X164547619Y-114306819D02*
X165166666Y-114306819D01*
X177488095Y-127306819D02*
X178059523Y-127306819D01*
X177773809Y-128306819D02*
X177773809Y-127306819D01*
X178392857Y-128306819D02*
X178392857Y-127306819D01*
X178392857Y-127306819D02*
X178773809Y-127306819D01*
X178773809Y-127306819D02*
X178869047Y-127354438D01*
X178869047Y-127354438D02*
X178916666Y-127402057D01*
X178916666Y-127402057D02*
X178964285Y-127497295D01*
X178964285Y-127497295D02*
X178964285Y-127640152D01*
X178964285Y-127640152D02*
X178916666Y-127735390D01*
X178916666Y-127735390D02*
X178869047Y-127783009D01*
X178869047Y-127783009D02*
X178773809Y-127830628D01*
X178773809Y-127830628D02*
X178392857Y-127830628D01*
X179297619Y-127306819D02*
X179916666Y-127306819D01*
X179916666Y-127306819D02*
X179583333Y-127687771D01*
X179583333Y-127687771D02*
X179726190Y-127687771D01*
X179726190Y-127687771D02*
X179821428Y-127735390D01*
X179821428Y-127735390D02*
X179869047Y-127783009D01*
X179869047Y-127783009D02*
X179916666Y-127878247D01*
X179916666Y-127878247D02*
X179916666Y-128116342D01*
X179916666Y-128116342D02*
X179869047Y-128211580D01*
X179869047Y-128211580D02*
X179821428Y-128259200D01*
X179821428Y-128259200D02*
X179726190Y-128306819D01*
X179726190Y-128306819D02*
X179440476Y-128306819D01*
X179440476Y-128306819D02*
X179345238Y-128259200D01*
X179345238Y-128259200D02*
X179297619Y-128211580D01*
X142091885Y-89315828D02*
X142495946Y-88911767D01*
X143001022Y-89820904D02*
X142293915Y-89113797D01*
X143438755Y-89383171D02*
X142731648Y-88676064D01*
X142731648Y-88676064D02*
X143001022Y-88406690D01*
X143001022Y-88406690D02*
X143102038Y-88373019D01*
X143102038Y-88373019D02*
X143169381Y-88373019D01*
X143169381Y-88373019D02*
X143270396Y-88406690D01*
X143270396Y-88406690D02*
X143371412Y-88507706D01*
X143371412Y-88507706D02*
X143405083Y-88608721D01*
X143405083Y-88608721D02*
X143405083Y-88676064D01*
X143405083Y-88676064D02*
X143371412Y-88777080D01*
X143371412Y-88777080D02*
X143102038Y-89046454D01*
X143977503Y-87901614D02*
X144448908Y-88373019D01*
X143539770Y-87800599D02*
X143876488Y-88474034D01*
X143876488Y-88474034D02*
X144314221Y-88036301D01*
X131841885Y-97565828D02*
X132245946Y-97161767D01*
X132751022Y-98070904D02*
X132043915Y-97363797D01*
X133188755Y-97633171D02*
X132481648Y-96926064D01*
X132481648Y-96926064D02*
X132751022Y-96656690D01*
X132751022Y-96656690D02*
X132852038Y-96623019D01*
X132852038Y-96623019D02*
X132919381Y-96623019D01*
X132919381Y-96623019D02*
X133020396Y-96656690D01*
X133020396Y-96656690D02*
X133121412Y-96757706D01*
X133121412Y-96757706D02*
X133155083Y-96858721D01*
X133155083Y-96858721D02*
X133155083Y-96926064D01*
X133155083Y-96926064D02*
X133121412Y-97027080D01*
X133121412Y-97027080D02*
X132852038Y-97296454D01*
X133525473Y-95882240D02*
X133188755Y-96218958D01*
X133188755Y-96218958D02*
X133491801Y-96589347D01*
X133491801Y-96589347D02*
X133491801Y-96522003D01*
X133491801Y-96522003D02*
X133525473Y-96420988D01*
X133525473Y-96420988D02*
X133693831Y-96252629D01*
X133693831Y-96252629D02*
X133794847Y-96218958D01*
X133794847Y-96218958D02*
X133862190Y-96218958D01*
X133862190Y-96218958D02*
X133963205Y-96252629D01*
X133963205Y-96252629D02*
X134131564Y-96420988D01*
X134131564Y-96420988D02*
X134165236Y-96522003D01*
X134165236Y-96522003D02*
X134165236Y-96589347D01*
X134165236Y-96589347D02*
X134131564Y-96690362D01*
X134131564Y-96690362D02*
X133963205Y-96858721D01*
X133963205Y-96858721D02*
X133862190Y-96892393D01*
X133862190Y-96892393D02*
X133794847Y-96892393D01*
X150091885Y-107815828D02*
X150495946Y-107411767D01*
X151001022Y-108320904D02*
X150293915Y-107613797D01*
X151438755Y-107883171D02*
X150731648Y-107176064D01*
X150731648Y-107176064D02*
X151001022Y-106906690D01*
X151001022Y-106906690D02*
X151102038Y-106873019D01*
X151102038Y-106873019D02*
X151169381Y-106873019D01*
X151169381Y-106873019D02*
X151270396Y-106906690D01*
X151270396Y-106906690D02*
X151371412Y-107007706D01*
X151371412Y-107007706D02*
X151405083Y-107108721D01*
X151405083Y-107108721D02*
X151405083Y-107176064D01*
X151405083Y-107176064D02*
X151371412Y-107277080D01*
X151371412Y-107277080D02*
X151102038Y-107546454D01*
X151741801Y-106165912D02*
X151607114Y-106300599D01*
X151607114Y-106300599D02*
X151573442Y-106401614D01*
X151573442Y-106401614D02*
X151573442Y-106468958D01*
X151573442Y-106468958D02*
X151607114Y-106637316D01*
X151607114Y-106637316D02*
X151708129Y-106805675D01*
X151708129Y-106805675D02*
X151977503Y-107075049D01*
X151977503Y-107075049D02*
X152078518Y-107108721D01*
X152078518Y-107108721D02*
X152145862Y-107108721D01*
X152145862Y-107108721D02*
X152246877Y-107075049D01*
X152246877Y-107075049D02*
X152381564Y-106940362D01*
X152381564Y-106940362D02*
X152415236Y-106839347D01*
X152415236Y-106839347D02*
X152415236Y-106772003D01*
X152415236Y-106772003D02*
X152381564Y-106670988D01*
X152381564Y-106670988D02*
X152213205Y-106502629D01*
X152213205Y-106502629D02*
X152112190Y-106468958D01*
X152112190Y-106468958D02*
X152044847Y-106468958D01*
X152044847Y-106468958D02*
X151943831Y-106502629D01*
X151943831Y-106502629D02*
X151809144Y-106637316D01*
X151809144Y-106637316D02*
X151775473Y-106738332D01*
X151775473Y-106738332D02*
X151775473Y-106805675D01*
X151775473Y-106805675D02*
X151809144Y-106906690D01*
X180238095Y-120806819D02*
X180809523Y-120806819D01*
X180523809Y-121806819D02*
X180523809Y-120806819D01*
X181142857Y-121806819D02*
X181142857Y-120806819D01*
X181142857Y-120806819D02*
X181523809Y-120806819D01*
X181523809Y-120806819D02*
X181619047Y-120854438D01*
X181619047Y-120854438D02*
X181666666Y-120902057D01*
X181666666Y-120902057D02*
X181714285Y-120997295D01*
X181714285Y-120997295D02*
X181714285Y-121140152D01*
X181714285Y-121140152D02*
X181666666Y-121235390D01*
X181666666Y-121235390D02*
X181619047Y-121283009D01*
X181619047Y-121283009D02*
X181523809Y-121330628D01*
X181523809Y-121330628D02*
X181142857Y-121330628D01*
X182047619Y-120806819D02*
X182714285Y-120806819D01*
X182714285Y-120806819D02*
X182285714Y-121806819D01*
X180238095Y-117056819D02*
X180809523Y-117056819D01*
X180523809Y-118056819D02*
X180523809Y-117056819D01*
X181142857Y-118056819D02*
X181142857Y-117056819D01*
X181142857Y-117056819D02*
X181523809Y-117056819D01*
X181523809Y-117056819D02*
X181619047Y-117104438D01*
X181619047Y-117104438D02*
X181666666Y-117152057D01*
X181666666Y-117152057D02*
X181714285Y-117247295D01*
X181714285Y-117247295D02*
X181714285Y-117390152D01*
X181714285Y-117390152D02*
X181666666Y-117485390D01*
X181666666Y-117485390D02*
X181619047Y-117533009D01*
X181619047Y-117533009D02*
X181523809Y-117580628D01*
X181523809Y-117580628D02*
X181142857Y-117580628D01*
X182285714Y-117485390D02*
X182190476Y-117437771D01*
X182190476Y-117437771D02*
X182142857Y-117390152D01*
X182142857Y-117390152D02*
X182095238Y-117294914D01*
X182095238Y-117294914D02*
X182095238Y-117247295D01*
X182095238Y-117247295D02*
X182142857Y-117152057D01*
X182142857Y-117152057D02*
X182190476Y-117104438D01*
X182190476Y-117104438D02*
X182285714Y-117056819D01*
X182285714Y-117056819D02*
X182476190Y-117056819D01*
X182476190Y-117056819D02*
X182571428Y-117104438D01*
X182571428Y-117104438D02*
X182619047Y-117152057D01*
X182619047Y-117152057D02*
X182666666Y-117247295D01*
X182666666Y-117247295D02*
X182666666Y-117294914D01*
X182666666Y-117294914D02*
X182619047Y-117390152D01*
X182619047Y-117390152D02*
X182571428Y-117437771D01*
X182571428Y-117437771D02*
X182476190Y-117485390D01*
X182476190Y-117485390D02*
X182285714Y-117485390D01*
X182285714Y-117485390D02*
X182190476Y-117533009D01*
X182190476Y-117533009D02*
X182142857Y-117580628D01*
X182142857Y-117580628D02*
X182095238Y-117675866D01*
X182095238Y-117675866D02*
X182095238Y-117866342D01*
X182095238Y-117866342D02*
X182142857Y-117961580D01*
X182142857Y-117961580D02*
X182190476Y-118009200D01*
X182190476Y-118009200D02*
X182285714Y-118056819D01*
X182285714Y-118056819D02*
X182476190Y-118056819D01*
X182476190Y-118056819D02*
X182571428Y-118009200D01*
X182571428Y-118009200D02*
X182619047Y-117961580D01*
X182619047Y-117961580D02*
X182666666Y-117866342D01*
X182666666Y-117866342D02*
X182666666Y-117675866D01*
X182666666Y-117675866D02*
X182619047Y-117580628D01*
X182619047Y-117580628D02*
X182571428Y-117533009D01*
X182571428Y-117533009D02*
X182476190Y-117485390D01*
D12*
%TO.C,J5*%
X158025000Y-85594340D02*
X132505000Y-85594340D01*
X158025000Y-82994340D02*
X158025000Y-85594340D01*
X158025000Y-80394340D02*
X158025000Y-81724340D01*
X156695000Y-80394340D02*
X158025000Y-80394340D01*
X155425000Y-82994340D02*
X158025000Y-82994340D01*
X155425000Y-80394340D02*
X155425000Y-82994340D01*
X155425000Y-80394340D02*
X132505000Y-80394340D01*
X132505000Y-80394340D02*
X132505000Y-85594340D01*
%TO.C,R4*%
X153022936Y-131015000D02*
X153477064Y-131015000D01*
X153022936Y-132485000D02*
X153477064Y-132485000D01*
%TO.C,C15*%
X180511253Y-86015000D02*
X179988747Y-86015000D01*
X180511253Y-87485000D02*
X179988747Y-87485000D01*
%TO.C,D2*%
X177860000Y-100210000D02*
X177860000Y-98290000D01*
X177860000Y-98290000D02*
X175000000Y-98290000D01*
X175000000Y-100210000D02*
X177860000Y-100210000D01*
%TO.C,D3*%
X167500000Y-118290000D02*
X164640000Y-118290000D01*
X164640000Y-118290000D02*
X164640000Y-120210000D01*
X164640000Y-120210000D02*
X167500000Y-120210000D01*
%TO.C,JP1*%
X157450000Y-130750000D02*
G75*
G02*
X158150000Y-131449999I1J-699999D01*
G01*
X155350000Y-131449999D02*
G75*
G02*
X156050000Y-130750000I700000J-1D01*
G01*
X158150000Y-132050001D02*
G75*
G02*
X157450000Y-132750000I-699999J0D01*
G01*
X156050000Y-132750000D02*
G75*
G02*
X155350000Y-132050001I0J700000D01*
G01*
X156050000Y-130750000D02*
X157450000Y-130750000D01*
X158150000Y-131449999D02*
X158150000Y-132050001D01*
X155350000Y-132050001D02*
X155350000Y-131449999D01*
X157450000Y-132750000D02*
X156050000Y-132750000D01*
%TO.C,C5*%
X155433633Y-100662420D02*
X155064166Y-100292953D01*
X156473080Y-99622973D02*
X156103613Y-99253506D01*
%TO.C,R7*%
X171977064Y-99985000D02*
X171522936Y-99985000D01*
X171977064Y-98515000D02*
X171522936Y-98515000D01*
%TO.C,Y2*%
X154062729Y-102671485D02*
X153108134Y-101716890D01*
X155300166Y-101434048D02*
X154345571Y-100479453D01*
%TO.C,FB1*%
X144834635Y-96089962D02*
X145204101Y-95720496D01*
X143830543Y-95085870D02*
X144200009Y-94716404D01*
%TO.C,F1*%
X171102064Y-121340000D02*
X169897936Y-121340000D01*
X171102064Y-123160000D02*
X169897936Y-123160000D01*
%TO.C,C13*%
X136739457Y-101309330D02*
X136369990Y-101678797D01*
X135700010Y-100269883D02*
X135330543Y-100639350D01*
%TO.C,R6*%
X171977064Y-97485001D02*
X171522936Y-97485001D01*
X171977064Y-96015001D02*
X171522936Y-96015001D01*
%TO.C,R5*%
X153477064Y-128265000D02*
X153022936Y-128265000D01*
X153477064Y-129735000D02*
X153022936Y-129735000D01*
%TO.C,J1*%
X176199999Y-131795000D02*
X176199999Y-133695000D01*
X176200000Y-127895000D02*
X176200000Y-129895000D01*
X166800001Y-133695000D02*
X176199999Y-133695000D01*
X166800001Y-131795000D02*
X166800001Y-133695000D01*
X166800000Y-127895000D02*
X166800000Y-129895000D01*
%TO.C,C3*%
X157394083Y-103651248D02*
X157763550Y-103281781D01*
X156354636Y-102611801D02*
X156724103Y-102242334D01*
%TO.C,U3*%
X152097507Y-103209642D02*
X151616674Y-103690474D01*
X151524751Y-103117718D01*
X152097507Y-103209642D01*
G36*
X152097507Y-103209642D02*
G01*
X151616674Y-103690474D01*
X151524751Y-103117718D01*
X152097507Y-103209642D01*
G37*
X151761631Y-104224340D02*
X151089880Y-103552589D01*
X151089880Y-104896091D02*
X151761631Y-104224340D01*
X145206751Y-110779220D02*
X144535000Y-111450971D01*
X144535000Y-111450971D02*
X143863249Y-110779220D01*
X144535000Y-96997709D02*
X145206751Y-97669460D01*
X143863249Y-97669460D02*
X144535000Y-96997709D01*
X137980120Y-103552589D02*
X137308369Y-104224340D01*
X137308369Y-104224340D02*
X137980120Y-104896091D01*
%TO.C,J3*%
X159170000Y-105550000D02*
X160500000Y-105550000D01*
X159170000Y-106880000D02*
X159170000Y-105550000D01*
X159170000Y-108150001D02*
X159170000Y-120910000D01*
X159170000Y-108150001D02*
X161830000Y-108150001D01*
X159170000Y-120910000D02*
X161830000Y-120910000D01*
X161830000Y-108150001D02*
X161830000Y-120910000D01*
%TO.C,C1*%
X166265000Y-121988748D02*
X166265000Y-122511252D01*
X167735000Y-121988748D02*
X167735000Y-122511252D01*
%TO.C,C17*%
X172761252Y-114015000D02*
X172238746Y-114015000D01*
X172761252Y-115485000D02*
X172238746Y-115485000D01*
%TO.C,R1*%
X173265001Y-121477064D02*
X173265001Y-121022936D01*
X174735001Y-121477064D02*
X174735001Y-121022936D01*
%TO.C,C12*%
X181511253Y-100515000D02*
X180988747Y-100515000D01*
X181511253Y-101985000D02*
X180988747Y-101985000D01*
%TO.C,C10*%
X143851760Y-94279765D02*
X143482293Y-94649232D01*
X142812313Y-93240318D02*
X142442846Y-93609785D01*
%TO.C,C18*%
X168673752Y-114015000D02*
X168151246Y-114015000D01*
X168673752Y-115485000D02*
X168151246Y-115485000D01*
%TO.C,C16*%
X172711253Y-111765000D02*
X172188747Y-111765000D01*
X172711253Y-113235000D02*
X172188747Y-113235000D01*
%TO.C,C11*%
X142437547Y-92865552D02*
X142068080Y-93235019D01*
X141398100Y-91826105D02*
X141028633Y-92195572D01*
%TO.C,C6*%
X150175536Y-94191450D02*
X150545003Y-93821983D01*
X149136089Y-93152003D02*
X149505556Y-92782536D01*
%TO.C,JP2*%
X157449999Y-128250000D02*
G75*
G02*
X158149999Y-128949999I1J-699999D01*
G01*
X155349999Y-128949999D02*
G75*
G02*
X156049999Y-128250000I700000J-1D01*
G01*
X158149999Y-129550001D02*
G75*
G02*
X157449999Y-130250000I-699999J0D01*
G01*
X156049999Y-130250000D02*
G75*
G02*
X155349999Y-129550001I0J700000D01*
G01*
X156049999Y-128250000D02*
X157449999Y-128250000D01*
X158149999Y-128949999D02*
X158149999Y-129550001D01*
X155349999Y-129550001D02*
X155349999Y-128949999D01*
X157449999Y-130250000D02*
X156049999Y-130250000D01*
%TO.C,C2*%
X154761127Y-95600360D02*
X154391660Y-95230893D01*
X153721680Y-96639807D02*
X153352213Y-96270340D01*
%TO.C,Y1*%
X151891155Y-100628772D02*
X154507451Y-98012476D01*
X154507451Y-98012476D02*
X150759785Y-94264810D01*
%TO.C,U2*%
X176439999Y-120250000D02*
X176440000Y-119450000D01*
X176439999Y-120250000D02*
X176440000Y-121050000D01*
X179560001Y-120250000D02*
X179560000Y-119450000D01*
X179560001Y-120250000D02*
X179560000Y-121050000D01*
X176490000Y-121550000D02*
X176160000Y-121790000D01*
X176160000Y-121310000D01*
X176490000Y-121550000D01*
G36*
X176490000Y-121550000D02*
G01*
X176160000Y-121790000D01*
X176160000Y-121310000D01*
X176490000Y-121550000D01*
G37*
%TO.C,R8*%
X168677064Y-116365000D02*
X168222936Y-116365000D01*
X168677064Y-117835000D02*
X168222936Y-117835000D01*
%TO.C,J7*%
X157985000Y-127344340D02*
X132465000Y-127344340D01*
X157985000Y-124744340D02*
X157985000Y-127344340D01*
X157985000Y-122144340D02*
X157985000Y-123474340D01*
X156655000Y-122144340D02*
X157985000Y-122144340D01*
X155385000Y-124744340D02*
X157985000Y-124744340D01*
X155385000Y-122144340D02*
X155385000Y-124744340D01*
X155385000Y-122144340D02*
X132465000Y-122144340D01*
X132465000Y-122144340D02*
X132465000Y-127344340D01*
%TO.C,U1*%
X169790000Y-118340000D02*
X171200000Y-118340000D01*
X169800000Y-120660000D02*
X171200000Y-120660000D01*
X169420000Y-118390000D02*
X169180000Y-118060000D01*
X169660000Y-118060000D01*
X169420000Y-118390000D01*
G36*
X169420000Y-118390000D02*
G01*
X169180000Y-118060000D01*
X169660000Y-118060000D01*
X169420000Y-118390000D01*
G37*
%TO.C,U4*%
X168302500Y-104590000D02*
X169562499Y-104590000D01*
X168302499Y-108350000D02*
X168302500Y-104590000D01*
X175122500Y-104590000D02*
X173862501Y-104590000D01*
X175122501Y-108350000D02*
X175122500Y-104590000D01*
X168402500Y-109630000D02*
X168072500Y-109870000D01*
X168072500Y-109390000D01*
X168402500Y-109630000D01*
G36*
X168402500Y-109630000D02*
G01*
X168072500Y-109870000D01*
X168072500Y-109390000D01*
X168402500Y-109630000D01*
G37*
%TO.C,C19*%
X168711253Y-111765000D02*
X168188747Y-111765000D01*
X168711253Y-113235000D02*
X168188747Y-113235000D01*
%TO.C,D1*%
X177860000Y-97710000D02*
X177860000Y-95790000D01*
X177860000Y-95790000D02*
X175000000Y-95790000D01*
X175000000Y-97710000D02*
X177860000Y-97710000D01*
%TO.C,R2*%
X177265000Y-125272936D02*
X177265000Y-125727064D01*
X178735000Y-125272936D02*
X178735000Y-125727064D01*
%TO.C,SW3*%
X178300000Y-106200000D02*
X178300000Y-106300000D01*
X178300000Y-107800000D02*
X182700000Y-107800000D01*
X182700000Y-104700000D02*
X178300000Y-104700000D01*
X182700000Y-106200000D02*
X182700000Y-106300000D01*
%TO.C,SW2*%
X178050000Y-89700000D02*
X178050000Y-89800000D01*
X178050001Y-91300000D02*
X182449999Y-91300000D01*
X182449999Y-88200000D02*
X178050001Y-88200000D01*
X182450000Y-89700000D02*
X182450000Y-89800000D01*
%TO.C,SW1*%
X183450000Y-98050000D02*
X183450000Y-97950000D01*
X183449999Y-96450000D02*
X179050001Y-96450000D01*
X179050001Y-99550000D02*
X183449999Y-99550000D01*
X179050000Y-98050000D02*
X179050000Y-97950000D01*
%TO.C,J4*%
X151340000Y-121059999D02*
X156060000Y-121059999D01*
X153450000Y-121059999D02*
X153450000Y-120449999D01*
X154750000Y-121059999D02*
X154750000Y-120449999D01*
X156060000Y-121059999D02*
X156060000Y-110939999D01*
X151950000Y-120449999D02*
X155450001Y-120449999D01*
X155450001Y-120449999D02*
X155450000Y-118499999D01*
X155450000Y-118499999D02*
X156060000Y-118499999D01*
X152450000Y-118099999D02*
X151950000Y-118099999D01*
X151949999Y-117999999D02*
X152450000Y-117999999D01*
X151950000Y-117899999D02*
X152450000Y-117899999D01*
X152450000Y-117899999D02*
X152450000Y-118099999D01*
X152450000Y-116099999D02*
X151949999Y-116099999D01*
X151950000Y-115999999D02*
X152450000Y-115999999D01*
X151950000Y-115899999D02*
X152450000Y-115899999D01*
X152450000Y-115899999D02*
X152450000Y-116099999D01*
X152450000Y-114099999D02*
X151950000Y-114099999D01*
X151950000Y-113999999D02*
X152450000Y-113999999D01*
X151950000Y-113900000D02*
X152450000Y-113899999D01*
X152450000Y-113899999D02*
X152450000Y-114099999D01*
X155450001Y-113499999D02*
X155450000Y-111549999D01*
X156060000Y-113499999D02*
X155450001Y-113499999D01*
X156060000Y-112699999D02*
X156260001Y-112699999D01*
X156160000Y-112699999D02*
X156160000Y-112399999D01*
X156260001Y-112699999D02*
X156260001Y-112399999D01*
X156260001Y-112399999D02*
X156060000Y-112399999D01*
X156360000Y-111889999D02*
X156360000Y-110639999D01*
X151950000Y-111549999D02*
X151950000Y-120449999D01*
X155450000Y-111549999D02*
X151950000Y-111549999D01*
X151340000Y-110939999D02*
X151340000Y-121059999D01*
X153450001Y-110939999D02*
X153450000Y-111549999D01*
X154749999Y-110939999D02*
X154750000Y-111549999D01*
X156060000Y-110939999D02*
X151340000Y-110939999D01*
X156360000Y-110639999D02*
X155110000Y-110639999D01*
%TO.C,J2*%
X135360000Y-110640000D02*
X134110000Y-110640000D01*
X135060000Y-110940000D02*
X130340000Y-110940000D01*
X133749999Y-110940000D02*
X133750000Y-111550000D01*
X132450001Y-110940000D02*
X132450000Y-111550000D01*
X130340000Y-110940000D02*
X130340000Y-121060000D01*
X134450000Y-111550000D02*
X130950000Y-111550000D01*
X130950000Y-111550000D02*
X130950000Y-120450000D01*
X135360000Y-111890000D02*
X135360000Y-110640000D01*
X135260001Y-112400000D02*
X135060000Y-112400000D01*
X135260001Y-112700000D02*
X135260001Y-112400000D01*
X135160000Y-112700000D02*
X135160000Y-112400000D01*
X135060000Y-112700000D02*
X135260001Y-112700000D01*
X135060000Y-113500000D02*
X134450001Y-113500000D01*
X134450001Y-113500000D02*
X134450000Y-111550000D01*
X131450000Y-113900000D02*
X131450000Y-114100000D01*
X130950000Y-113900001D02*
X131450000Y-113900000D01*
X130950000Y-114000000D02*
X131450000Y-114000000D01*
X131450000Y-114100000D02*
X130950000Y-114100000D01*
X131450000Y-115900000D02*
X131450000Y-116100000D01*
X130950000Y-115900000D02*
X131450000Y-115900000D01*
X130950000Y-116000000D02*
X131450000Y-116000000D01*
X131450000Y-116100000D02*
X130949999Y-116100000D01*
X131450000Y-117900000D02*
X131450000Y-118100000D01*
X130950000Y-117900000D02*
X131450000Y-117900000D01*
X130949999Y-118000000D02*
X131450000Y-118000000D01*
X131450000Y-118100000D02*
X130950000Y-118100000D01*
X134450000Y-118500000D02*
X135060000Y-118500000D01*
X134450001Y-120450000D02*
X134450000Y-118500000D01*
X130950000Y-120450000D02*
X134450001Y-120450000D01*
X135060000Y-121060000D02*
X135060000Y-110940000D01*
X133750000Y-121060000D02*
X133750000Y-120450000D01*
X132450000Y-121060000D02*
X132450000Y-120450000D01*
X130340000Y-121060000D02*
X135060000Y-121060000D01*
%TO.C,TP1*%
X177200000Y-116250000D02*
G75*
G02*
X175300000Y-116250000I-950000J0D01*
G01*
X175300000Y-116250000D02*
G75*
G02*
X177200000Y-116250000I950000J0D01*
G01*
%TO.C,TP2*%
X165200000Y-115500000D02*
G75*
G02*
X163300000Y-115500000I-950000J0D01*
G01*
X163300000Y-115500000D02*
G75*
G02*
X165200000Y-115500000I950000J0D01*
G01*
%TO.C,TP3*%
X179700000Y-129500000D02*
G75*
G02*
X177800000Y-129500000I-950000J0D01*
G01*
X177800000Y-129500000D02*
G75*
G02*
X179700000Y-129500000I950000J0D01*
G01*
%TO.C,TP4*%
X145484999Y-89974340D02*
G75*
G02*
X143585001Y-89974340I-949999J0D01*
G01*
X143585001Y-89974340D02*
G75*
G02*
X145484999Y-89974340I949999J0D01*
G01*
%TO.C,TP5*%
X135234999Y-98224340D02*
G75*
G02*
X133335001Y-98224340I-949999J0D01*
G01*
X133335001Y-98224340D02*
G75*
G02*
X135234999Y-98224340I949999J0D01*
G01*
%TO.C,TP6*%
X153484999Y-108474340D02*
G75*
G02*
X151585001Y-108474340I-949999J0D01*
G01*
X151585001Y-108474340D02*
G75*
G02*
X153484999Y-108474340I949999J0D01*
G01*
%TO.C,TP7*%
X182450000Y-123000000D02*
G75*
G02*
X180550000Y-123000000I-950000J0D01*
G01*
X180550000Y-123000000D02*
G75*
G02*
X182450000Y-123000000I950000J0D01*
G01*
%TO.C,TP8*%
X182450000Y-119250000D02*
G75*
G02*
X180550000Y-119250000I-950000J0D01*
G01*
X180550000Y-119250000D02*
G75*
G02*
X182450000Y-119250000I950000J0D01*
G01*
%TD*%
M02*
